/* XPM */
static char *result[] = {
/* columns rows colors chars-per-pixel */
"50 50 163 2 ",
"   c #3C281D",
".  c #272426",
"X  c #292626",
"o  c #2B2827",
"O  c #302625",
"+  c #352925",
"@  c #392924",
"#  c #452C1D",
"$  c #492D1D",
"%  c #552D1D",
"&  c #592C1F",
"*  c #47301D",
"=  c #48321D",
"-  c #5D301A",
";  c #77310D",
":  c #642D12",
">  c #6B2C10",
",  c #642E1D",
"<  c #6E2E1D",
"1  c #712F1C",
"2  c #7A2E1B",
"3  c #663113",
"4  c #6D3211",
"5  c #64331A",
"6  c #6B321C",
"7  c #69391A",
"8  c #733414",
"9  c #7B3316",
"0  c #713C17",
"q  c #7F3913",
"w  c #71311E",
"e  c #7E321A",
"r  c #442A22",
"t  c #492D21",
"y  c #552D21",
"u  c #582E21",
"i  c #4B3421",
"p  c #4B3B23",
"a  c #734113",
"s  c #70411A",
"d  c #6F5523",
"f  c #6F5A25",
"g  c #81320B",
"h  c #8D3508",
"j  c #813B0F",
"k  c #8B3A0D",
"l  c #973707",
"z  c #9A3706",
"x  c #9E3907",
"c  c #953708",
"v  c #943C0C",
"b  c #813B14",
"n  c #8A3B11",
"m  c #82331B",
"M  c #963617",
"N  c #9C3517",
"B  c #953619",
"V  c #9C3718",
"C  c #9F3819",
"Z  c #AC3E05",
"A  c #A13D0A",
"S  c #BF3D00",
"D  c #A63615",
"F  c #AE3916",
"G  c #A83E18",
"H  c #B33915",
"J  c #BC3B14",
"K  c #C23E00",
"L  c #D93E0F",
"P  c #C33D14",
"I  c #CA3D13",
"U  c #D63D10",
"Y  c #D83E10",
"T  c #97410F",
"R  c #9E420A",
"E  c #9C4809",
"W  c #86461E",
"Q  c #85571C",
"!  c #AD4507",
"~  c #A1440D",
"^  c #A34B0D",
"/  c #B34207",
"(  c #BC4403",
")  c #BA4A07",
"_  c #A2540E",
"`  c #AD5A0F",
"'  c #B55606",
"]  c #BE4916",
"[  c #A55F11",
"{  c #9F6015",
"}  c #A5660F",
"|  c #A16E1B",
" . c #A77E1B",
".. c #916C21",
"X. c #C64100",
"o. c #CB4500",
"O. c #C54A03",
"+. c #CD4900",
"@. c #D04700",
"#. c #D34A00",
"$. c #D94F00",
"%. c #C25007",
"&. c #C05806",
"*. c #C85A07",
"=. c #D35401",
"-. c #DC5300",
";. c #D65D02",
":. c #DF5800",
">. c #C84014",
",. c #D34112",
"<. c #DA4312",
"1. c #DC4C13",
"2. c #DE5414",
"3. c #DF5914",
"4. c #E05700",
"5. c #E35B00",
"6. c #E05D14",
"7. c #C56C0C",
"8. c #CE6B09",
"9. c #D16205",
"0. c #D96202",
"q. c #E66201",
"w. c #E86501",
"e. c #EA6B01",
"r. c #ED7403",
"t. c #EF7904",
"y. c #F07C04",
"u. c #E26415",
"i. c #E36C16",
"p. c #E57217",
"a. c #E67418",
"s. c #E77A19",
"d. c #E87C1A",
"f. c #D38211",
"g. c #DF9A18",
"h. c #EF8008",
"j. c #F28205",
"k. c #F18609",
"l. c #F38C09",
"z. c #F4930D",
"x. c #F5990F",
"c. c #E7801A",
"v. c #E9831B",
"b. c #EA891D",
"n. c #EC941F",
"m. c #F59D11",
"M. c #F5A314",
"N. c #F6AA17",
"B. c #F6AD18",
"V. c #F6B31B",
"C. c #F7B91F",
"Z. c #ED9521",
"A. c #EE9A23",
"S. c #EE9E28",
"D. c #F09D24",
"F. c #EFA026",
"G. c #F0A329",
"H. c #F2AC2E",
"J. c #F7BC21",
"K. c #F3AE31",
"L. c #F4B534",
"P. c #F5B936",
"I. c #F6BC39",
/* pixels */
"+.+.@.o.o.K K K K K K K X.o.+.K K K K K K K K K K K K o.@.o.o.K K K S S K K K o.o.+.o.o.o.X.K K K K ",
"o.K K o.K K K o.o.@.@.$.-.-.$.#.$.@.o.K K K K K o.o.@.#.-.4.-.$.o.K S K K o.#.-.-.4.-.#.@.@.o.K K K ",
"o.o.o.K X.K o.@.$.4.5.5.:.$.@.o.o.@.@.@.+.K K K K +.#.#.$.#.o.K K K K o.@.+.#.$.$.$.@.+.K X.K X.o.o.",
"-.-.-.$.#.o.K o.o.+.#.@.o.+.o.K o.@.@.K o.o.@.@.@.@.@.@.o.o.K K K X.#.$.4.:.$.#.@.o.o.K o.+.@.#.$.:.",
"r.t.r.r.e.4.$.+.o.K K K K K o.@.$.:.:.#.+.o.o.+.+.o.X.o.o.o.o.K K @.$.:.$.#.@.o.K o.o.@.$.-.q.r.r.t.",
"w.5.w.r.y.r.e.4.$.#.+.o.o.+.#.-.w.5.w.5.$.$.#.o.X.o.o.#.#.$.$.$.#.o.@.#.#.+.o.o.o.+.#.-.5.e.t.e.w.5.",
"#.$.$.4.q.e.r.r.5.4.$.$.#.@.#.$.$.$.4.5.e.y.&.4 > ( $.4.5.4.4.4.4.4.4.$.$.$.$.$.$.5.4.4.w.w.-.$.$.#.",
"X.o.+.#.$.4.5.4.5.5.5.-.@.+.o.X.o.o.@.$.5.e.` O r ^ =.:.-.$.#.#.$.$.4.4.5.5.w.r.t.r.w.4.-.#.@.o.o.o.",
"$.#.+.X.o.o.+.#.$.#.#.+.o.o.o.o.K o.K o.#.$.R r U y b #.#.+.K o.X.+.@.#.-.w.e.y.e.4.-.#.X.o.o.+.#.$.",
"e.w.4.$.@.o.X.X.o.o.o.o.@.#.#.$.$.#.#.+.X.X.v o . J m & +.o.@.#.#.o.o.o.+.$.$.4.-.@.o.X.o.@.$.5.w.w.",
"N.z.j.w.5.-.#.@.@.@.@.#.$.-.5.e.w.5.4.-.#.+.Z : o J D e n #.5.5.5.:.@.o.K o.+.K X.X.X.@.$.5.5.e.r.y.",
"k.x.z.j.r.w.4.-.#.#.$.4.w.r.j.x.m.x.k.e.4.#.-./ o J U D r +.$.4.q.5.4.-.$.#.#.$.#.#.#.#.$.#.$.$.4.5.",
"4.w.e.t.y.y.y.r.w.4.$.$.4.5.w.y.l.N.B.M.t.e.e.*.o J U C @ +.+.+.$.:.5.e.e.w.w.w.q.q.5.:.$.#.+.+.#.#.",
"+.-.$.4.5.e.w.t.r.5.4.#.#.$.4.5.e.t.d g.M.l.7.s V I <.I M 7 z K +.#.:.q.t.j.j.y.r.5.:.#.o.o.K o.X.o.",
"+.o.o.o.#.$.-.:.4.#.#.o.X.o.o.+.O.! X 8.t.e.~ r ,.3.1.<.P @ h +.X.z X.#.-.5.5.4.$.+.o.X.o.+.#.#.$.#.",
"5.4.$.+.o.X.X.o.+.K K o.@.#.@.+.g X X %.$.@.v r U i.6.<.P @ E 5.%.o c X.+.@.@.+.o.X.X.#.:.5.5.e.t.e.",
"4.4.5.-.#.+.o.X.o.+.@.4.5.w.w.t < Y o Z o.8 , U Y u.3.Y P + } k.8.X . ; +.o.K +.o.$.$.5.r.h.t.e.w.4.",
"+.@.@.#.$.-.$.$.$.4.5.r.k.M.N.p < Y o / : 1 F <.u.p.6.Y P +  .N.f.o o j $.#.#.#.$.4.e.e.w.5.:.$.#.#.",
"o.X.o.o.#.-.4.5.4.w.e.e.r.k.m.p w Y r A @ m <.1.i.p.3.Y P @ _ 9.^ t O a 9.5.4.:.-.-.$.$.#.o.X.X.X.o.",
"$.#.@.o.o.+.#.$.-.$.-.-.4.5.r.i w <.I t X m 2.i.a.p.6.<.P + c k t I y O 0 5.4.-.#.o.o.o.X.o.+.#.=.$.",
"y.t.e.5.-.+.X.o.o.o.+.@.@.#.5 B H <.6.G D ] u.s.b.a.3.<.P @ # 9 D Y u . 5 #.+.o.o.K @.#.#.-.w.e.r.r.",
"N.N.m.j.r.5.$.@.o.o.#.#.#.@.X J <.6.p.6.2.u.i.s.Z.s.3.<.>.@ y B <.Y m r & X.o.o.@.@.$.5.q.r.l.N.N.N.",
"N.N.V.B.z.r.w.:.-.-.-.4.4.-.o J 6.p.a.a.a.a.a.d.A.s.3.<.P @ J <.<.<.<.m 5 #.#.+.$.-.5.r.l.N.J.V.N.N.",
"r.t.t.l.j.j.j.l.x.x.l.j.8.o Y <.1.p.a.p.a.a.d.Z.n.s.i.u.<.<.<.2.u.<.L m 7 5.w.e.w.t.z.B.V.B.z.t.w.w.",
"-.:.4.5.w.t.j.z.x.x.l.j.8.o Y <.6.p.v.s.a.d.b.n.n.s.p.u.1.<.2.u.u.<.Y m 7 4.q.t.l.M.N.m.l.t.e.q.-.$.",
"o.o.o.#.-.5.5.w.r.t.r.w.%.o Y <.6.p.D.s.s.b.D.A.n.s.a.u.1.1.i.i.u.<.Y m & ( #.-.5.e.e.e.5.-.-.#.@.+.",
"o.+.+.o.o.@.$.-.-.-.-.@.Z o Y u.i.p.D.n.n.Z.A.F.K.v.a.a.i.i.p.i.i.1.<.m o $ $.#.#.-.$.-.#.+.X.o.o.o.",
"$.-.4.$.#.+.o.+.+.+.o.A 6 N <.u.p.p.D.n.n.n.n.A.P.b.a.a.a.p.b.d.u.<.<.J e i e.w.4.-.o.o.X.o.+.#.$.$.",
"e.r.r.r.w.4.#.+.@.+.@.v r L <.u.p.d.Z.H.S.Z.S.H.P.Z.d.p.a.s.n.v.i.1.<.Y D i y.e.5.$.X.+.#.-.5.e.e.w.",
"w.w.r.y.j.y.w.4.-.-.5._ r L <.u.d.Z.n.L.G.Z.S.P.P.P.Z.p.s.Z.D.v.p.p.2.<.C i 4.$.$.X.+.:.q.t.y.t.w.4.",
"#.$.$.4.w.r.j.y.y.y.j.[ r U L i.v.n.D.L.P.P.L.P.P.P.S.b.n.Z.A.v.p.p.1.<.N t #.+.o.$.4.w.e.q.4.-.-.#.",
"K o.o.@.$.4.w.e.y.y.e.E r U L u.d.n.n.L.I.P.P.L.P.P.G.n.n.G.A.v.i.p.1.,.C r X.o.#.4.4.-.-.#.X.o.o.X.",
"@.@.+.X.o.+.#.$.$.-.$.v r Y <.i.v.A.A.L.I.I.I.I.I.I.P.K.S.P.F.b.a.p.2.<.C t X.o.@.@.o.o.o.o.o.+.#.+.",
"e.5.:.$.o.o.K o.o.o.o.n r Y Y u.d.Z.A.L.I.I.I.P.I.P.L.P.P.P.G.v.p.i.1.L N t $.+.o.X.o.+.@.#.$.$.5.q.",
"N.z.j.w.5.-.#.@.o.o.o.v r Y <.u.v.A.D.L.I.I.I.I.I.P.P.I.P.I.S.b.i.i.1.<.D i w.4.-.$.#.$.4.5.e.y.l.m.",
"h.h.l.t.w.5.-.$.@.#.$.) m 2 U 6.u.v.Z.L.I.I.I.P.I.P.P.P.L.P.S.v.i.3.<.F W | j.t.w.q.5.r.j.j.k.t.t.y.",
"4.4.4.4.4.4.:.#.-.4.w.e.8.o Y <.6.a.D.P.I.I.I.I.I.I.I.P.I.I.S.d.i.<.<.m f J.B.N.m.l.j.r.e.5.5.5.4.4.",
"$.$.#.#.$.$.#.#.$.-.5.5.*.o Y Y 6.a.Z.D.L.I.I.I.I.I.P.L.P.Z.d.i.i.<.Y m d V.V.M.l.t.w.$.$.@.@.+.+.#.",
"X.X.X.o.o.X.X.X.X.o.+.@.O.4 m P 1.u.d.Z.F.L.I.I.I.I.P.L.Z.v.p.u.2.<.N q _ l.j.e.4.4.#.+.o.K K o.X.X.",
"#.+.#.#.o.X.o.+.@.@.o.o.X.o.t N P 3.6.d.b.D.L.K.K.K.H.S.c.a.i.3.,.J , k 4.4.4.$.$.#.o.o.K o.+.#.$.#.",
"w.w.4.4.4.-.-.-.4.4.-.$.@.o.X.r < U U L 6.i.a.p.a.p.p.p.i.i.1.Y J o z o.@.$.$.#.o.X.X.+.$.4.5.w.w.w.",
"y.j.y.y.e.5.r.y.k.k.j.e.5.-.+.c > r r H <.<.<.<.<.<.1.<.1.<.< t % ~ X.+.o.K o.K X.o.@.-.5.e.j.y.r.r.",
"5.5.e.y.y.k.m.m.N.J.B.N.z.e.4.$.Z q q m m e 2 m e e m m e m Q ..{ r.e.5.-.#.#.#.#.#.$.4.4.4.5.5.5.5.",
"#.#.-.5.5.e.w.e.t.j.x.N.V.M.j.q.4.:.$.: # # # $ = = * # # # ' e.t.t.j.y.r.e.w.5.4.-.@.#.+.#.#.#.@.@.",
"o.o.@.#.$.-.$.4.5.5.e.t.z.V.B.z.y.w.5.=.=.X.+.=.;.0.;.=.+.X.=.:.5.5.r.e.r.e.5.5.-.#.o.X.X.X.+.o.o.K ",
"@.o.K X.K o.o.+.@.#.-.5.q.t.z.M.m.j.t.r.5.:.#.o.+.+.+.+.o.K o.X.$.$.$.:.$.$.$.#.X.X.X.+.$.-.-.#.#.@.",
"#.$.#.+.o.o.o.o.o.o.o.#.$.:.5.e.w.q.:.-.:.$.#.o.o.o.+.@.#.@.#.@.o.o.o.o.o.K o.o.o.+.$.5.e.5.4.4.-.-.",
"4.4.5.4.4.4.-.$.$.+.o.K +.#.#.$.-.#.@.+.X.X.K +.@.$.4.5.4.4.4.$.#.+.o.o.o.K +.#.$.4.q.r.e.:.$.#.$.4.",
"+.@.#.$.4.$.$.#.#.o.o.o.K K o.o.o.K K K o.o.@.$.5.5.4.4.#.@.+.#.$.#.#.#.+.#.$.4.5.5.5.4.#.+.K K o.o.",
"K K K K o.o.o.K K K K o.o.K K K K o.K K K K o.+.@.o.+.o.o.K K K K X.K X.K X.o.@.#.#.$.+.o.K K K K K "
};
