/* XPM */
static char *result[] = {
/* columns rows colors chars-per-pixel */
"128 128 44 1 ",
"  c #BE3C00",
". c #C23F00",
"X c #C64100",
"o c #CC4500",
"O c #CF4800",
"+ c #D04700",
"@ c #D44B00",
"# c #D84F00",
"$ c #D75000",
"% c #DC5300",
"& c #DF5900",
"* c #E05700",
"= c #E25B00",
"- c #E56301",
"; c #E86601",
": c #E66903",
"> c #EA6C02",
", c #E77005",
"< c #ED7303",
"1 c #EE7A05",
"2 c #ED7E08",
"3 c #F07602",
"4 c #F07C04",
"5 c #F07F08",
"6 c #EF8106",
"7 c #EF8309",
"8 c #EF8B0D",
"9 c #F18206",
"0 c #F38907",
"q c #F18509",
"w c #F28C0A",
"e c #F3930D",
"r c #F4990F",
"t c #EF9010",
"y c #F29610",
"u c #F49C11",
"i c #F5A314",
"p c #F5A917",
"a c #F4A718",
"s c #F6AD19",
"d c #F6B31C",
"f c #F7B81F",
"g c #F7BC20",
"h c #F8BC21",
/* pixels */
"++@@++oooo.............  .....Xo.+..+.........................+......+.++++++....XXXX.           .XooXo.XoOooooooXoX............",
"+++++ooo+............... ....XXo+.@+++.....+..........................+++++++....Xoo..          ..XXooooo+OOoooooo+XX...........",
"OOoOoo.oooo......o......X.oooO+@@@@@@@.+.++.+.......................+++++###++++oo+X...     ......++@@+@@@@@@O@O+oX++oX..... ...",
"ooX......ooo+.........XoOOo+@###*###*##@#+@#@@..................+.++++#####*###@++o+X...    .....++###%#%#%%###@@o++++oX....    ",
"oo.o...oooooo......o.ooO@@@##%%%*##*####+++@@++...+..............++++@+##****#+#@+XXX...  ...oXXX+@##%%%%%%##@#@Ooo+++ooo.......",
"ooo.oo.oo.....X..Oo+++@####%%&%&**###++@+++@+++.+++...........+.+++++@+########.XXXXXX.X..XXo++X++###%%%%%###@@@+o+++XXoXXo.....",
"ooOooooooo.....o+o+@####%****==**###+++..+..++++@@+++++++++..+++.++@@#+#####@++.X...XXXX.Xo++@+++@#####%%%%#@++XXoXXooXXoooooo++",
"@@@++@@+oOOoXo.oooo++@@###%%%%%###+@@.@.+.++++++.+++.+.+.++.@..@++++@++#@#@#+++......XXoo++@####@#####@##@@++++XX++ooXXo++@++@@+",
"%%%#####@OO@OoX...oooooO@####@@@@++@+.+.....#..#+..+..@++.@+++..+++#@+++++@++.......XXX+++##***%%###@@@+++ooXoXoXoooooXo+######%",
"==*&**=&%%$#@@Oooo.oooooo+@++O++@@...+..@..#.##.+...+..++++#@++++#+++++++++++.....XXXXo+###%****%%#@@+++oooXXXXXooOOOOO@#%%%%=&&",
">>;;-;;-:;-&*%#@Oooooooooooooo+O+.+..+...##.*####.@+...@++++@+@.++++..+..++++++..XXXo++++##*%**%%@++@+++XXXXX+XoO@@@#$&&=;:-:>,>",
"<<3<333311<>-=*#@++.ooo......ooo+...+.+@#####*%###@+@+@.+.++@@.@+++........+++++.XoX+@@@###%%%###@XoXoXXXXXXX++++##%%&-;,<<3<<44",
">>>>>333<33<>;-=*##@++Ooo.o.oooo..+....###*****=*####+.#.+#@.#.@..+...+..++#++++X+o+++@++######@++X+X+XXXXXooO@##%&==;>><33>>>3>",
"-==-;;>><1<13<>;==&%#@++Ooooooo.@..@##*#*****===****##@@++.@@.@..+++++++++@####++++@+++++++#@@+++++X+XoXXoooO@#%%*=-><<<<3>>>---",
"==**===;><<<<33>>-==%##@@@++oo+o.@.##**#*****==;====***#@@..@.@....@+###########@##@@+@+++#+++++X++o+o+oO+O@@#%%==-;><<<>>;;===*",
"%%*%**===;;>>>>3>>;==%%%##@@@@@+#.@.@#####%***========*;****####@++######*#*#**#%############@@@@@@#@@@@##$$#%%%==--;;>;;-==*%**",
"####%###%**=->>>33>;-=*****####+@+.+@@########**===;>>><>>-=***%#+###*******************#%%######%#*###%*==*%%*===-====**##@####",
"#@@@#@####**=-;>>>;;;=*=****%%##+++o++@@@@#####%**==;><<3>;-===**##**#********#*#####***%%%*#******==**===-===**====*%%###@++@@@",
"++++++@@###**==-=;-=====**=*%%#.+ooo.+++++@@##@##%**=;:<>3>>;;;-*****##*****@@@@@###@*#*%*%%**====-=--;;;>>>-=&&*%%#####++Ooo+++",
"ooooo++++@@##%%&=*==*=*=*=**%###+ooo.o.oo++++@+@@#%*==;>>3<>>>>;==****#**###@+++.@+@@@###%%**===;;;;>>>>>>>>;=&####@+@+++ooooooo",
"+o+oOO++++++O@##*%%%*%%%*#####.#ooo.o.Xo.+++++@+++@#$&&&--;;;;-=***#######@#@++++++@+#@#%###%*=;;;;;>>>;>;;-=&#@@@++OoooooOo+++@",
"@@@++++oooo.ooO+@#@@###@@@@@.#..ooooooo......+.+oooOO#%%*%=-;-==**##@@@++++..+.....+.++##@@##*==;;;>33>>;===&#@Oooo.o..o.ooO+@##",
"&&###@@@+oo.XooO++++@@@@.#.#.@#.oooOoOoo@.+o++..ooooOO@###&*&&&&##@++@++++++++.+.++..+.#@@@@##**===;>>;==***#@OooooooooO++@@#%#%",
"-;-=*&###@+ooooo++++++++#.#.@.#.o+++++@@@++@@+@+ooooXooOO@##$##@@++++++@+++.++++++.+++.++++++@##***==-=**##@OOoooooo+++@###&&***",
"<1<>-==&%#@ooooo+++++.+..@.+..++O+@@@@#%#@##@#@@+ooXXooooOOOOO@@..+..@++++.++@@+@++..+...#..++++@@##%*##@@+Oooooooo+@##%%%==;===",
"w8q1<<;-==%#@@@O@@..++++.@++#++@@@#%%&&===%%##%##@@OOooooOoooOOO@++@++#+##@#@@#**##*@####..#o++++@@##@@@OoOoo.oO+@@#%%**===-;>>>",
"airew1<<>-=*&%%##+.@+@@+@+@+@+###%%&==;::-===**&%%%@+OOOoooXXooo++++++@##*###*******%####.@..+oo++++o+o.ooo.ooo++#%**==-=-;;><33",
"iirre041<>;-=&&%##@++@#.@@@@###*&&&-->><<<<>>;::==&#@@@OOOoooooO+++@@+@####**#********%##@@#+o+o.+.+ooo+oo.o.oo+@@#%**===--;;<33",
"eerree0933>>;==**#@@@@.@++@##***=->><<49qqqq12<<:;&&%#@@@@@@O@+O@+@#@@@@@#####****====***##.#@++@+++@@+@@+OOOOO+@@####%#**==->>>",
"49weeee05433<;==*####@##++@#****=;<<10weyyyyrewq1<:-=%#@$$$$##@O@@###@@@@@######**==-=***#%%####@@@@@@###@@@+@@++@@@@@@###%*==;;",
"<<26qq6133333<>;;=****###@##****=->><1900eerrryye61>;-&&&&&&&&&&**####@#######+###********;=*=**%%&%&*%%%%%####@@@@#@@@@@###**==",
"-;>>>,,<>>335533333;;***#*####**&=-;:>3400weiipaiy86<::---:--;;-******###*###+++###******;;;==============*=***####@@+++@@#@@##*",
"**==-;-::>><31443<<<>;===%%%####%**=-;><490wrupsiirw61<>>>>>>>>;-===&%%%%%##@oooo+@##%%*=-><>>>>:>>:;>;--====*####@@+OOoO+++++@@",
"%%&=&&&==-;;<<<<<<3<>>--==%%#@####&*==;>><168euiiirew0911<>>>>>;--==&%%%##+#+oooooo@@##%*-;><<<<<<<<<>>;;===**###@++Oooooooooo++",
"@@@#$%%%&&==->>>>><<>>>>-=&##@@@@##%&&=-;>><16wrriiuue0943<>:>>>--===%%$+++OOooX.oo++@##&=-><413499431<>;-=***#@+oooooXX....o.XX",
"+O@@@####%%%&==---;;;;===%%@@++oOO@@@%%%==--:,278weeew01<>;;-==&=*&%%#$@@+OOoOoo.o.oO++@#%&-;>>><><<<>;-=*%%%#@++oooooooOO+OooOO",
"OOOOOoO+++@@#%%&&&&&=**###+Oooo.XoooOO+@@$$&&=:><26106<>;=&%$$%#####@Ooooooo+++Ooooooo+O+@#%&==---;==&&&%##@+OooooOOOO+@@@@@@#@@",
"oOOOOooOOoO+O+@@%$#%###@+Oooooo.X..oooooOO@@$$&&;:<<<::-&%#@@@@+@+OOOoXoOOOO+#$+++OooOoooO+@##&&*=&&&#$@@@+Ooo.oO+O@@@@##%%&%%%%",
"#####@@+OoooOoOO@@@+@@@@Oo.ooooooXoOOOoooOOOO@$&&----&&$$@@OOOoOooO++@@+@#%%%%*%$##@@+oooo+++@@@##%##O@O+Ooooooo+@#%$%&&&&----==",
"*==*&##@+OooooooooXXoO++ooo..ooOOOO++@OooooooO@$$%&&$@OoOooooXXX.Xo+@$%%%%=:;-;==**%#@+ooooOooOoO@@@oooX.o.oooO@@%%*===---:<<<:>",
"====**##@@OOooo.+.o+.+o.oooooO@@##%#%%#@OOOOOO@@##@@@Oooo.ooooooooO#$&&&--:<<<<,>--==&#@++OooooooO+Ooo..o.++O@##&&--;;:>;>>,<>>;",
"====***###@OOooo.o...++.XoO@@#%&%=====&*&%#@++OO++OOooooooooooO+O@#%&=;:,<119qq62<>>;==%#@++oooooooo+.+oo++@@#%&-;:>><<<>>>>>:-=",
"==******%%#@@+oo....+oooOO@#%&==-:>,>>;=&&%%@@OoooooXXooooOoo+@#%&&&-:<<160weerwqq5<>>-=*##@+ooOoooooooo+@@#&%==;><<1<1,>>;;-===",
"%%*#%#######@@+++++o+@@@@#%&&-;<<277722>::=&&##@+OoOoOO+++@@@#%&&-::,168eruiiiiuuwqq5<>-***%@@++OO++++++@##*===-;;>>>:>--==&&&%%",
"##@+@@@@@###%%##@@@@@###%%*=;<<98wuurrw91,;-&&%##@@@+@@@@###%&*-:<<10weisdddgddspiuww9<>-==*####+@@@+@@+##*=;>;>;-=====&*%%###@#",
"+++++++@+@###%%######%%*&&=;><39qyuuiuywq1<>:-==*%######&*===-;>1100wrrispsdssauuywq94<>;;;==*######@####%*=----&&&&&$&##@++++++",
"+++.++++++@##%%##%%*****==;>>><15qwyuuueewqq<,>>-==*%*&*=;:><<1600eerripipiuyye8623<<<<>;>>>;-==%%#######%**===&%%##@@@OOO++ooOO",
"++.+o+.+.o+@##%%#**=*=====;>>>>>359weruururwwq1<>--====-><114900errriiaiire0872<>;;-;>>>>>33>>;=**%%#*%%*##%%###@+OOooooo..ooooo",
"@+OOO++oOoooO@####%*&&%*&====---;>,2qwwwwwww9911<<>:==--><3399000ee0wwe88861<,,:-=&=-----::;;;-==***%%%%##@@@@@++OoooooooooO@OOO",
"##@@+@@+Ooo.oO+@@####%%#%%&&&&&&==-><245qq00996612,:==-;>344999900014<<<<,>;:&&%&%%%%%%&%&=======*=**%%#@OoooooOOo..XXXoooO$@#@@",
"**&%&$##@@oooOO+@@@#@@@#@#######%%%=:>>,,<33<111<,,-*==;>>>3311141<<>;;;;--=&%$%####$####%%%%=*****%###@@OooXoOoooooooO$$$$$&$$&",
";;::--==&$#@OOooo+++O@+O@+@+@@@##@#%&=-----=;----:-&*==;-;;->>>>>>:--===&&&&$#++@O+@@@OOO+@@##%%%#%#@+++oooooo++O++@$$&&=-:::---",
"113<<,>-===%@OoooooXoooooooooo++@+o@%%#######%%#%%%%***=*=****=====*%%%#####@OoooX+XX+XXXXoo+@@@@@@+oo..Xooo++@@@@@#%=;>><<<<<<<",
"wwww862<>;--&#O@OOOooooXoooo+++@++o@############@#@####**%**%%*%&%#%%#@#@@@@OOXoooX++X+oXXoooooo+++ooooooooO@@##%#&==:<169006800",
"rrrurreq1<<<-&$$#@OooooooO+@++@@@@@@@@@@@@@@@@@@@++++@@##@#####@@@@@@@+@+Oo+oooooX+XX+oXoooooXoo.oo.oo++OooO@#&**=->><9qwerrrrrr",
"iiiiiiur0941:-&&&#@OoOoO++@#@#@@@@@@#@@@@@@@@@@++ooo.o+@@@@@##++oXOO@@++oOoOOooO+o+o++o+++ooooXXoo.oo++@++O@#&*=-;><4wwuriiiipii",
"ppppappire061<;-=&%#@@@@@@#%%%%%#############@#@+oooooo++o++++ooXooO+@@@@@@#@@@@@@@@@#@##@#@+++XoooOO+@@#@@#%==;><40wruipppppppp",
"spppsddspirw94<>;=&%&$&$%&%%*=*%%%%*%%%##%%%%%##@oo.....ooooooooX..o+######%%##%%%###%%%%%%#@@+oooOO+@@####&==:><0wripsddddsspss",
"yereyuiuree0994<,>:::-::::::::;;=-=--=-===&===&%#@+ooooXo.oooooooooO@#%%####%##%%####%%%%%%%%###@@#%%&&&&&=:>,27wruippisiiyyyyey",
"222216w88009999441277616722111<<<<><<<<<<>--====%#@+OooX..o.ooO+OO@#%%*%####@###%#####%#%%%%*%%*&&======-:><7wuaisssspiywq62,,,>",
";;:>>><<<34999990weewweetee00944433334441<>>;;-==%##@@Ooo.Xooo+++@#%%*=%##@+@###%#@@@##$#%#%**=*===-;;>:><4weupddddssuyq53>;-===",
"&&=&--;:><<<314990weeeeeeew0999433<<<<33<><<><<>;=&&#@OOooXooo++@@###%%#@+OO++@@$@OOO@@@@##%%***===:><<<qqwyuuipiuuuywq2>;;==*%*",
"&%&&%&&&=-;>><3490errreeeww099433>>>>;;;>><<3333<>-=%%@O+OoX.oO@@####@@+OoXXXoOOOOooOOO+o+@@##%%*==><7qwwyuiiuuuyw8221<>;==%###%",
"@@@###@#%&=-;>><<11700ww800961<<>>;-=-=--;>><<<<<<>;=&&##@OOOo++@#@#@+OooooOO@@@@@@O@@O++++++@###%%=,,<5qwywywtqq2<,>>--=*%###@#",
"+oOOOOO@##%*==-;;::>,1179911,>--=&=&&&&&&&===-;><<1<<:==%##@@+++@++oOo.ooo@@$&%%%%$$$$#++ooooOOO@@#%==:>,<<<1,<<,:-===&&&$#@@@@+",
"ooooooooO+@#**======--:<<<<::-&&%%%%%######%%&==><319<:=&%%##@++++ooX..ooO#&&====&&&&%%#@OooooooOO@##&&-=-:-;;;-=**%%%%$#@@@@+++",
"+Ooooooooo++##%%&%&&&==-:;-&&&$$@#@@@@@@+@@@#%&=-;:>>:=*%%##++oO+oo.oXoO@%&=-><>>,::::-&%#+OOOOOO++@##%&&&&&====%%%#@@@OO+o+X+++",
"@+OooXooooOo+@@##%%%&&&&&&&&$@OOoooOoOoOO+O@@##%&&==-=&###@+oooooooooO@#&&=:<1611111<<,:=&%%@@@@+++@@@#@$$$%%%#%#@@+ooooooXXXX+X",
"@#@+++@@++@OO++@@#####$%$$$#@ooooooooooXoOo+O@@@@#%%*%#@##+Ooooo++O+$$&&:><11wewwy88w872,,:&&%&$&$#%#%###%###@@@#@++XXXoooOoooOO",
"##########@@@OOO@+O@@@@@@@OOOooooOOOooooooooOOOO@@@##@@O++OooooO+@%%&-:,276eeriippapaaiyt72<,::;=-==&&%%%%%@@+++++++o+XoO@###@@@",
"%&%%**=***%#@OoooooooOOOOoooooooO+@+OooooooooooooOO@@+oooooooO@@##=-:>4qeeiippsfghggggddsuew711<<,>;;-===%%@OoooXXXXoX+o@$%%&%%%",
"===-------==%@@@OOoooOooOOOOOOO@@@##$@##@#@@OOOoooOOOoooOO@+@@#%&=->22wyipsssspsdsdssddssauye801113>;--=*%#+oXoo+++@@@##%&=-===%",
";;;>><>3<>;==&$#@+oooooooO+@@#$$#%$&&&&&&%%%$@OOoooooooo@@###%*=-><<7eisddggssspiiuuipssdsspurwq043<>-===*#+o.oo+@@@@%%=-:;;;;-=",
">>>33333<<<>;=&&%%@OOOoOO@#$$&&&-&--:>::;==&&$$O@OOOOOO+#***==-;><10eupsddsgapuyeeweeruuiaaiurw041<>;===*#@+.o++@##%%=-;;,>>>;;;",
";;>>>33<<<<<>:;;=&&##@@##$&&&-;>,1126221<<>>:-&&#@@@@@#%===;>><16qwerispsiiuytwq5121126888eww941<>:-=*&#@@+ooO@*&&=;>>>><<>>;;==",
";;>>>>3<<11611<>>;=&%%%%&&=;:><0wryreeww0931<>-&&####%%&=;>><490eerriisiiuwq5333>>;;>>>>><<43<>;-=&&*##@++ooo@%==;>>4<3553<>;=**",
"&&==--;;:>><<<1<<<:;-----:><<34q0euuuuuireew61<;-=*&%%***=->><490wwweeyewq5<>>>;-=====-=-:>>::;-==&%#@@@@+++@%==-;>><>>>>>;-=*#%",
"%#&&*&&&&&--><1111<<>>>><<14440qwruuissddpiyw01<>;-==*%%&*==;><4149449q655>-;-==%&&%&%&&&=---&&&&%#@@O++++@#%==-;;>;;:;=-===**##",
"@O@@#@###%&&;:<1413<3<<1344944590eyuiisddddiurw91<>;-==*%%&*=;><<,<>,<<,>>===***#@#######%*&&&%###@@ooO+@@#%*==--;;--=%%%%%##@++",
"oooOOOO@@#%&&-;>><><<<<<1<3<<<33116qweuuiipppirww64<>;-==*%%&==-----=-:--=*%*###@+OOOO@@@#%##@@++@@OooO@####&*===***%%$#####@+oo",
"XXXoXooo+##$%%&&--;>>3<<<<>>>;;;;>>,<qq0ruisddiire093<>;=&&%#%%%&&%%%%&%%$%###@+oooooooooO@@Oooo.+oooo@###%%%%%%#@@#@@oo+++++o..",
"oXXXXXoooo+@##%%*===-;;>>;---==;=--;><<5qweisdpirrw0991<:-=&%&%&%$######@##@@@+OoooooooooOOOooo.o..ooO@@########@@++++ooOooooooo",
"oXoooooooooo++@$##%%*==========*%&&==->,30weippsiire0004<>;-==*%%%#@@#@@@@O@O++OoooOOOoooXooooXoo..ooO++@@@OOOOOOOOOoooooooooOoO",
"OOOOOoooXoooO+oO@@#####%&%%%%*%%%%%%&==>><10eupspirrre0w61>;-==&%%#@@@@+OOOOO++OoO@@O@OOOOXXoOOooo.oo+++OooooooXooooooooo.oo+@@@",
"%%%%$#@++O+oOo+++++@+@@@@@@@@#@@@@@##%&=-:::,7tyerreeeww91<<:-=&%#@++++ooOO@O@@@$$%%&&$%%$######@@O++++oooo.ooooo+++++@@@+@##&&&",
"---==%%%%##+oooooooooo++OOoOOOooOoooO+$%$$$&=:16wwww00ww0611>;=&%#@O.oo.ooO@##$%&&=---=-==&&*=*=%%@@+OOoo..ooooo+###@#@#%%%%==-=",
",1,,,:-==%%++++++o+oo..+XoooooooooooOO@#$$$&&=-,<160996611<>:==%#@Oooo++O$$$&&=-::>,<<,,>>;;;;===*%#@@+Ooooo++++@#####*=&&->,<<<",
"yyw62,,,:=&%%%##@++@++++.ooOO+++ooooooOOO$@$$&=-><,<<<<<<>:-=&%@@OooO+@@$$&&=-><<226qqqq55233>;;-=**%###@+OO@@@@##%%%==-:,,<qq8w",
"piutqqq<>:===**#@@@@+....o+++@@+OOooooooOO@##%%&==;;>;>;--=&%#@+ooooO@%&&=--><49wwrrereeee00543<>-===&%%##@####%&&&==->>>35weryu",
"yywqqq55<,;-==*%#@@++++.o++@@####@@@+OOooOOOO@#%&*======&&##@++OooO@#%&=-;><6qeeuuiiaiiiuiiurww9q<<>;-==&%#%#&==-::>>><<<<<5qqww",
"558555qq55>;;=**##@++++++@+@#%&%%%%##@OooXoXoO@@@###&%%%#O+OOoooooO$&*=><<6qeeuiipdfhddhddhdpiurew943>>-==&&*==><14433<133<<<149",
"<>,<<,,<33>;-=*%###@@++@@###&======&&%@@OooooOO@@+@@@@#@Oooooo++OO#%*-;>344qweryuppdddhhhhhhhdsiuuewq453>:---->><193<<<<>>>>;>><",
"----;--;;;-===***##@@###%&*==-;>:>>:-==&%@+Ooo+@++++++++Oooo++@###%*=-;><331198wtyuuipsdddhhddddspiuuyww91<<<<><<<>>;;;---;===--",
"%%%&****===******%#@##%**==-;><3133<>>;=&%#@oo+@+ooooooooooo@@%%%%*==;>><>>>><<145qqeuupssdhhhhhhffdspiurew0041<>>-==&&&===&&&%%",
"##%%%%##%%#%%#####@@#%***==--;>><333<<>>-==%#@#@@+OO++++++O+##%%&%**==--;--=;;;>><<29qeyuuasdhhhffdspiuew091<<>;-==&%%$##%#$####",
"######@@####@@@#@@@@#%#*%**==-==->33313<>;==**##@@++@@@@@@@@##%*&&*%*&&*=&&&&&&=;->>349wweruidsdddfspie0043<>-=*&%%@OO@@@+@@@@#@",
"+++@@+OO+++++++oo+++@####%%&&&&*=;><<<<1<>>;===*%###@########*%%%%%#######%$##%%*==->>352qweuiiipspiyew1<<>>-=%###@OooooooooOo++",
"ooO++oXooo++O+ooo.oooOOOO@@@@%#%&=---;><<>>>3>>-==**%%****####%#%%#@@@@@@O@@@@@##%**=-;>><240werrerew2<>>;;=*%#@@OooXXXoo..oooO+",
"...oo..Xooooooo........ooooo+@###%%%%&=:>3343433>-==**====*&*####@@ooXXooXXoXooO@###%*==;;>334490994<:;===*%%@+oooXX..........oo",
"XoOooooooooooX.oo.oX.oooooooO+++@@###%=-;>>>>>>;;-==***%%%###@@++++X++o++++o++o++++##%%*===-;>><<<<>;-=&%%##@@O..ooXXXXXooOOOooo",
"+++++++@OOOooXXXooOoo+ooooooo.oXoOO+@##&====;==;==**%###@@@+Oooo+X+X+X++@@+@+++oXo++@@##%%&&=------=&&%###@@+oo.XXXXoooOO@@@@+++",
"####@@@@#@+OoXoO+++@@#@+oOooooo...ooO@@##****=****%%##@@+++ooo.oo+++++@@@@@@@++ooXoo++@###@#%***%%**%#@@+@++o+...ooOOO@@$%%%###@",
"&===&%####@@@O@@#@@##%##@@@@@OOooooooo@@###%*%%%####@@++ooooooOO+@@@@@####%%%#@@++++OOO+@+@@#####%##@@@O++o+.+.+O+@@@%%&&=====&&",
">:;-=*%*%&&%%%%#%%%%***&%%%###@OOooo.oO@@#@@@@@@@#@@++oooooooo@@@####%%%***%%%%#++@+OooooooO++@@#@@@+OOo+..+.+++@@#%&*=-;>;;;;;:",
"><>>>;--=-&=&&&=====-:---=-=&&$$@OOooXoO+@@+++++++++oooooOo++@##%%****==---:-==%%#$#@OOOOooooo++++++oooo..o..@@@##*==-;>><>>>>3>",
"<14411<<:>:;--=--:>>,<,,1,,>,-=&&$#OooXo.ooo+oooOoooo..oo+@@@##%%%==;;>,,>,<<,>-==%%%##++OoooooOo++ooo.oooo++@@#**=-;>>>12534333",
"<14499941<<>>::>><<45q8888822,,-=&%@Ooooo+ooooo.oooooo.o+###%%%&==;;><537777772<>:==&%%%@@+OoOooooooo..o.o+++@#***=;>>3345543444",
">>><<<<<<<1<<<<278wwtyyuuututq8,>;&&$@OO++++oooOoO+++@@@##%%*=-;>,<<3qqttyuyuyy872,,::-&&%##@@@++++ooooo++++@#%**===-;>>>,>>>>>>",
"-=-;>>><1369949wuuuuassddddspuyw6<:-&%#@@#@+++@@+@@####*%==*=;<333558erussggdsaauyq2,<>>===*%%#@+@@+++++@@@@#%**====&====-====-=",
"&===-=;>><<<119weeeyuiiaissdspiue71,:==&###@@@@@@@##%#%#*==-;>334559qtruuauaaaiuuyw55<<>>>;-==&&%%%##@###@@@###**%%%%&&%***&*&**",
"####%&==---;><<<12267w8wyyuipsiiure7,,;=**#####@######***==;3<333459qwwww877776722q44<533<<>>>>:-===&%**%###@@##@@@@O@####@##@##",
"@@@+@#%#%%&=-;;;-;;>><<12wwrippspiarw6<;-=**%%%%########%=;333<<4455q555<,::::>>>><<1144043312<<<>;-===**###@++.oooooO@+@OOO+OOO",
"@++o+@@###%*=======-;>:>,<qqweuiiisiue71,>;-==&%*#%%*###%%=-;>,,3333<<,>:-=&==:-;;;;;>3333334<<3>;-===**%#@@OOoooooooooOOooOoooo",
"++ooO+@@@###%%%%%&=====-->><2qweuadssaew6<<>>-==*#***%@##%%==;;>>>>;>:-==%%#%&%&=*;;;;;33333<<<>>;====*###@+OoXX.oo..oooooooo...",
"++oooo+++@@@#@@####%%&&&=&-:><1qwuipapuew043<>;-=====*####%%**==--=;=%%%%#@@@#$%*******;<<>>>>;-==****##@@OooXXooOooOOO+OOoOoo.o",
"++oooo.oO+OO@+++O+@###@##&&-;:><27wyuiiurrww43<,>,:==*%####@@##%%%%%%##@@++XoOOO.@@*##**==;=-==***%###@+o+OooXXoo@@@@@@#@@@++ooo",
"+++oo...oo.oo.ooooXooOOOO##&&==->><qwyippiuyq94454<;=*%%%#@+ooXoo++@++ooXXXXXXXX.++@@##***#%%%##@@@@@+oo.oo..ooo+##%%%%#####@+++",
"@@+++ooooooooooooooooOooOO@#%&==&-;>22qtewqq3<>>;>:==*%##@@oooXooo+@@++++++ooooX.+++.#.##@####@+@+o+++o.o+++O@@@&&=&&&*%*####@#@",
"###@@@+Oooooooooooooooooooo@@%%%&&&=-:,,<,<>--====&%%%%#@++oo..Xoo++@++++++++@OO+..+#.#.++++++++oo.+oo+.o+@@@#&=-:>-*=*%*#%#####",
"######@@+++ooOO+oOoOoOoOoooo@#####%%%&=---===**%%%#%##@@@++oooXXoo@####@@@@#@@#@@@@@.@.#.+.+.+.+.oo.oo+++@##%==-;>>-*****##%%%*%",
"*#%%%%%%#@###@@####@#@@+Ooooo@@@#@$$%%%%%&=%%%$$@+#+++Oo+oooooo++@##*%%%###%#%#%##+++...+..++++.+o.+++++@#*==--;>>:-***#######**",
"#*%&*=*=***%&%%*=*&%%%##@oo..ooO++@#####$%%%#+OOOoooooXXXoooo++###*==*=**********%#+++#..+++..++.oo++@@@#*==;>>>>:-&%###@#@@@#**",
"#####%%***%*%%%*&%####@@+Ooo.ooooO+++++++##+oooooXXXooXXoo+++@##%%******%%%#*##*###+#+..@++.++.+++++####**==;;;--=&&#@@@+++++@@#",
"++O+@@@##%%&%####@#@@@@++Oo.oooXXXXXXooooOoooXXXXXXooooO++@@@#%***=**%%%##@@#+####+#++##+++++.++@++##***========&%%@++++ooooOoOO",
".oooooo+@######@@@+++++++ooooo..XX...XXXoXoXX.....XXXoo++++###******%##@@+++++++#@+#@+@@+@+++.++++@#***=**=*=%%%%#@Ooo.oo..ooo..",
".o..oooO+@@@@@+++oooo..o...oooooXX....XXXXXX..... XXXXXoo+++###%%%%###@++oXo.oo+.+.++++++.+++++..++@#%%%*##*%%##+@+oo.o..o......",
".o.oXX..oooooooooo.........o.oo+oX....X..........X.. XXX...+++@@+#@@@++o...XX...+.....+....++..+.+++@@@##+#@@@@++ooo.o..........",
"...o...X.oooooooo.o.... .....oo+oX.X................X.X ..o+++@+#@@@@++oX............+.+..+..++..+.++@@@@@+@@@++ooXXo........   "
};
