/* XPM */
static char *result[] = {
/* columns rows colors chars-per-pixel */
"50 50 39 1 ",
"  c #BE3C00",
". c #C23F00",
"X c #C64100",
"o c #CB4400",
"O c #CF4800",
"+ c #D04700",
"@ c #D44A00",
"# c #D94F00",
"$ c #D75000",
"% c #DC5300",
"& c #DF5800",
"* c #E05700",
"= c #E35B00",
"- c #E66201",
"; c #E96501",
": c #E76903",
"> c #EA6B01",
", c #EE7402",
"< c #EF7A04",
"1 c #EE7E08",
"2 c #F17702",
"3 c #F17C03",
"4 c #EF8205",
"5 c #EF8308",
"6 c #F28305",
"7 c #F48907",
"8 c #F18409",
"9 c #F38C09",
"0 c #F4940D",
"q c #F4990E",
"w c #F59D11",
"e c #F5A313",
"r c #F5AA17",
"t c #F6AD18",
"y c #F6B41C",
"u c #F6B91E",
"i c #F8B91E",
"p c #F7BD21",
"a c #F8BE22",
/* pixels */
"+@oo..... ..ooo......  .o .o++..o     XoXOoooX ...",
"o..oo....++#%%%@@@...  ..o+@%*#@o.  .X@%%%##o@o.  ",
"oooo..o@#%*=*#+oo++@+oo.oo@@##+..XXo@o##%%@oooXooo",
"*#%@@o.oo+#+@oo..++..o+@o@@+++...X@#=*#@+oXXooo##%",
",2,3>*@oo..oo.XO#%#@+oo@o+...++.o@@%%#ooX.o+#%-,,3",
"==;,32;*@@oooo#%==;=%@ooo.+@@##@@o+@+ooooo@%=,3,;=",
"###%=>2>=*%#@o@###*=>2>**@#*=***%=%%##%#%=%=-=*#@#",
"oo+@#*=====%+oXo+@@#=>2>>=*%*#++@#%%=-;>>,;%#@@ooo",
"@++oXo@@#@OooooXXoXoO#%;=%@@+oo.oo#@%;;2;=%ooXXo+#",
",;*#ooooooooo@@#@@@oXoOO@oo++o@@oooo+@#*#@ooo@#%-=",
"t03>=%#o@+@@%%->;==%@OoXo++@%%*==%@oooooXXXO#=-;>3",
"6q03,-%#@+@==,40q08>&@#$@@#@@##%-=*#@@@@#@@O@@@#=;",
"=;:>363,-%%#%=;37eyw<>:>>=&%%#oO#%=,:----==%#@O@+#",
"@$%*=>>,>;%@@$*-><qew72>>-=%@OoXo@%;3363>=*@ooXXXX",
"oooo+@%%%@oo.Xoo@$=,<>%@@@OXoo@oooo@%==%#@oXOO@###",
"==#OoooXooXoO+@ooo$%#oooX.@%%;;=*@oooo@oXXo@%=-;<>",
"==*%@oXXoo@%=;;=%@ooXooo@#&><708,;%@ooooo@#=,<<>:=",
"@+@@%%@@#%=,7ee8>=%@@@#%=,6qyput06;=#@@@@*>>==&#@@",
"oooo@%%===>>,8wwq8,-==,37qwre95>;>>2>=%%%%%#@ooXoo",
"#@@+.+@#$#%%%=,<6661=;,667,>>-%%#%%*===%#oXoXXo+#@",
"<<>=%ooooooo@o%##%%%%==*==*%##ooooXo@@@oXo+@@%>,,,",
"eew32%%ooo@@@@@@@++oo@@#@o@+ooooooooXXXo@o#=-,9wee",
"tryr9<;%%%%=%%%#%%#oXXooo.o##%#%#%%%@oO@##=>7eyytt",
">><3666090963336>;=#@o.o+@%=#@#%@#%%==-;-,0yuy0,;=",
"#%%=>,60q0962>;;,33>%@OX+##@oXoOoOo@#%=19eew8<>=##",
"ooo+#===:<,-%%%##%-36-%#++X.o%==%%@Xoo@%--;;*%%@@+",
"@oooo@#%%%%Ooooo+@#%=##oooo@=>641<-%@@+@@$##@oXo.o",
"%%**#oooOOooo@oooooO@ooo+#-,0etappr9<,>-=%ooooo#*#",
">,2,;%#ooo@$%%-=*$Oooo#%=>6raptwqeyyw73;=#Xo@#=>>;",
";>,,4,>*%%->7q093,=##*;,60wrw82>;>><,;&%@oo=;2<<;*",
"@##%=<6<,<669wtpy03>=%%=,<,<,==###%=&%#o+@=;>;**%@",
"XXoO#%-;,,>;;:<7eue93>&#%%#%##@oooo@oXoo#%%%@@o++.",
"oooXo+@##*%*%%*>3wye09,-&%@@OO+oOOoXoo.+++oooooXo@",
";-%%+ooooooooo+%$&<9994,=$oXo@$&-;-==*#+o.oo#@#%=;",
"r98;**@@o.+@+ooo@#&;>>;%@oo#&-2700972>=%%@##%=>,0w",
"<116>=#@o@@%*%#oXo@@##oooo%-29eraaaatw72;**>733,><",
"%**=***@%*-><2>=#o@oooo+%%=>,>,17wtyaayrw96,;=&=*%",
"@#+@@++@%%*==233;=#@@#@#%=%%%%%=-280tyye62-%#o+o+@",
".o.ooo...oo@#%%>23,-*==%#@ooooo@#*->266>=&#oo..X.o",
"@@@@o.++@ooX.o@#*==*%@+oXoo+@@+Xo@##=**%@@o.Xo+##+",
">;%&%%%%=%%#OoX@@@@@+ooo@##%**%@@ooo+@@+oXo+#*->;>",
"<66,>->,181>=#oXooXoXX@#%=;,<1<-&%@ooooXXo+%=>2833",
"=;><66eeyuur9>%#@+@@%%==238wypyr8,;=%@@+@@#==&====",
"@+%%=>;>,10tte4-*%####=<,388,:>><<62<,;==#@ooo@O++",
"+o+@###*==><0yy92>=%=@#*;>;=%@%===2,,>==#@oXoXooo.",
"+o.oooooOO%=;,0te6<<=%#oo+@ooXX.@@%%%@@@XoXo#%%#@+",
"##@oooooooo#$%&;;=*%%#+o.o@@+@@+ooooooXoo@#-,=*%%%",
"%*=**%=%%@XoO@#@%@+oo.oo@#==****@oooooo@@=>>:%#@@*",
"oo+#%#@@++oo...oo...o+@#*=*#@+@@@@@+o+@====%#ooXoX",
".X.oooo.. .o+..........+@@@+.....o.ooXo@@@@+oX... "
};
