/* XPM */
static char *result[] = {
/* columns rows colors chars-per-pixel */
"50 50 161 2 ",
"   c #1D1D1F",
".  c #221D1F",
"X  c #2B1D1F",
"o  c #341E1F",
"O  c #3D1F1F",
"+  c #34221C",
"@  c #3D291F",
"#  c #1D1E20",
"$  c #201E20",
"%  c #2E1F20",
"&  c #341F20",
"*  c #3B1F20",
"=  c #1F2022",
"-  c #232324",
";  c #2B2424",
":  c #252729",
">  c #272929",
",  c #2B2C2C",
"<  c #332323",
"1  c #3B2121",
"2  c #3D2827",
"3  c #362728",
"4  c #322B2B",
"5  c #3E2E2D",
"6  c #30302E",
"7  c #3B302E",
"8  c #2E3131",
"9  c #323433",
"0  c #363937",
"q  c #393A36",
"w  c #373938",
"e  c #3A3C3A",
"r  c #421F1F",
"t  c #4F2712",
"y  c #4B251B",
"u  c #44231E",
"i  c #542915",
"p  c #5D2C13",
"a  c #572918",
"s  c #4E311C",
"d  c #662D0F",
"f  c #692E0F",
"g  c #6C320F",
"h  c #7B330D",
"j  c #76320D",
"k  c #642D10",
"l  c #692F11",
"z  c #722F10",
"x  c #6D3211",
"c  c #663812",
"v  c #733610",
"b  c #743C11",
"n  c #441F20",
"m  c #452020",
"M  c #4B2121",
"N  c #532323",
"B  c #5C2521",
"V  c #453322",
"C  c #4F3421",
"Z  c #632622",
"A  c #6A2721",
"S  c #642A21",
"D  c #6B2D21",
"F  c #702722",
"G  c #742922",
"H  c #7A2A22",
"J  c #6C3F22",
"K  c #743122",
"L  c #7D3523",
"P  c #3E403C",
"I  c #764211",
"U  c #794011",
"Y  c #7B4A13",
"T  c #785A1A",
"R  c #41433E",
"E  c #745023",
"W  c #7E5A24",
"Q  c #444642",
"!  c #464943",
"~  c #4A4C46",
"^  c #8F380A",
"/  c #80340C",
"(  c #90370A",
")  c #923C0A",
"_  c #A53D06",
"`  c #AA3D05",
"'  c #A03D08",
"]  c #BF3D00",
"[  c #842C23",
"{  c #8B2C23",
"}  c #962E24",
"|  c #9B2E24",
" . c #833622",
".. c #883023",
"X. c #8B3922",
"o. c #943123",
"O. c #9C3024",
"+. c #A42F24",
"@. c #A82F23",
"#. c #A63124",
"$. c #A93024",
"%. c #B43C24",
"&. c #B93F25",
"*. c #C23E00",
"=. c #86440F",
"-. c #9A440A",
";. c #984F0C",
":. c #AB4306",
">. c #AE4908",
",. c #B54205",
"<. c #BA4403",
"1. c #B34C07",
"2. c #BB4904",
"3. c #B55107",
"4. c #BC5306",
"5. c #BB5C08",
"6. c #BB630A",
"7. c #BD6F0D",
"8. c #BD720F",
"9. c #BC4324",
"0. c #A27F26",
"q. c #C64100",
"w. c #CB4500",
"e. c #C24C04",
"r. c #CF4800",
"t. c #D04700",
"y. c #D34B00",
"u. c #D84F00",
"i. c #C15606",
"p. c #CC5703",
"a. c #DC5300",
"s. c #DF5800",
"d. c #E05700",
"f. c #E35B00",
"g. c #C27A12",
"h. c #E66201",
"j. c #E86501",
"k. c #EB6B02",
"l. c #ED7403",
"z. c #E27806",
"x. c #EF7904",
"c. c #F17C04",
"v. c #BF8618",
"b. c #BF8B1A",
"n. c #BE8216",
"m. c #AA8426",
"M. c #B99327",
"N. c #C08919",
"B. c #D79C1A",
"V. c #EF8008",
"C. c #F28205",
"Z. c #F18609",
"A. c #F38C0A",
"S. c #F4930D",
"D. c #F5980F",
"F. c #F59D11",
"G. c #F5A414",
"H. c #F6AA17",
"J. c #F6AC18",
"K. c #F6B31B",
"L. c #F7B91E",
/* pixels */
"r.r.r.q.q.*.*.*.*.*.*.*.q.w.w.q.*.*.*.*.*.*.*.*.q.*.*.r.r.r.q.q.*.] ] ] *.*.*.w.q.r.w.w.q.q.*.*.*.*.",
"q.q.q.q.q.q.q.q.w.r.r.u.a.a.a.y.y.r.q.q.*.*.] *.w.q.t.y.a.a.a.u.w.] ] *.q.w.y.a.a.f.a.u.t.y.w.*.*.*.",
"w.r.q.q.*.*.w.t.u.a.f.f.a.u.r.w.q.w.r.t.r.q.q.q.q.w.y.y.u.y.r.*.*.q.q.w.r.r.y.u.a.u.r.q.q.*.q.q.q.q.",
"a.a.a.u.y.r.q.q.w.r.y.r.r.r.w.q.q.r.r.q.q.w.r.r.r.t.t.r.r.q.*.*.*.q.r.a.f.a.u.y.t.r.q.q.q.r.r.u.a.a.",
"l.l.l.l.k.d.u.r.w.q.*.q.q.q.w.y.a.d.a.y.t.r.r.w.r.r.q.q.q.q.q.w.q.r.u.a.a.y.r.q.*.q.w.t.y.a.h.l.l.x.",
"h.h.j.l.C.l.j.d.y.y.w.w.q.w._ ) h.f.j.f.a.u.y.w.q.q.r.y.y.u.a.u.y.w.h ' y.r.w.q.w.r.y.a.f.l.l.k.j.j.",
"u.u.u.d.h.k.c.k.f.a.a.u.y.) + ( u.u.d.f.k.l.p.2.2.<.<.e.f.f.f.d.s.f.-.+ ^ r.u.a.a.f.d.f.h.h.a.u.u.y.",
"q.q.r.y.u.d.f.f.h.f.f.a.,.M D ` w.t.y.u.-.;.V 8 , , , V ) ) r.t.y.a.e.D M i.j.l.l.l.j.d.a.y.y.w.w.w.",
"u.y.r.q.q.r.t.y.a.u.y.t.v [ G _ q.q.h i 9 e e ~ ~ ~ ~ P , w t f w.r.,.D ..b k.x.k.s.a.y.w.q.q.w.y.u.",
"k.j.f.u.y.q.q.q.q.q.r.q.a O.L + ,.h q Q ! ~ w Q ! ! Q w e ~ Q e p ` + G #.y a.a.a.y.w.q.w.r.a.f.h.j.",
"J.S.C.j.f.a.y.y.t.t.y.y.a | %.D   8 ~ ~ Q 9 - # $ - $ - 9 R ~ ~ 9 # S %.O.y w.w.q.q.q.r.a.f.h.j.l.C.",
"Z.F.S.c.l.h.d.a.y.y.u.d.c [ #.9.{ 5 Q 9 -   o * o o o o . : 6 R 7 ..9.$.[ p y.y.y.y.y.y.y.y.u.a.f.f.",
"f.j.k.l.c.c.c.l.j.d.u.u.2.u { %.o.3 8 # X O n M n r N n r X . > 4 ..&.{ o 5.j.j.h.f.f.s.u.y.y.r.y.y.",
"r.u.a.d.h.j.k.l.l.f.f.y.q.p 1 B 2 > $ X r N B N N n N N M r X   : 1 a n c z.C.c.l.h.a.y.w.q.q.q.q.q.",
"w.q.r.q.y.u.a.f.d.y.y.w.` ; e e 8 - o M M M N N N n N N N N M o   , w P > 2.f.s.a.y.w.q.w.r.r.u.u.u.",
"f.f.u.r.w.q.q.q.r.*.*.q.h ; P ~ , % N N n N B N N r N N M n N u % - Q ~ e h y.r.q.q.q.y.a.f.j.j.l.k.",
"d.d.f.d.y.w.w.*.q.w.y.a.s P e P X u o & n N M N N r n N M M X o n X 8 ~ ~ @ q.q.r.y.u.f.l.V.x.j.j.f.",
"r.t.y.u.a.d.u.u.a.a.h.=.q ~ ! : X 1 1 & n n r N N r M N N M < 1 * o > ! ~ 9 j u.u.f.j.k.h.f.f.u.y.y.",
"q.q.q.q.y.a.f.f.f.h.j.I P ~ P = 1 X L 1 o N N N N n N N M r +  .X *   w ~ e v a.a.a.a.a.y.w.q.q.q.w.",
"u.y.y.r.*.r.y.a.a.a.a.v P ~ w # u X  .K X O $ % X X X . m X K X.X u . w e , x a.y.w.q.w.q.w.t.t.u.u.",
"c.x.k.f.a.r.*.q.q.q.r.l , , :   r . G 9.L B | +.+.+.@.| Z  .%.H . m   > P R d w.q.w.r.t.y.a.j.l.l.l.",
"H.H.F.C.l.f.u.t.r.r.y.x 8 w 8   n * m | %.$.#.@.$.$.@.$.$.%.o.m 1 m . w ~ P d w.r.r.u.d.h.l.A.G.J.J.",
"J.J.K.J.S.c.h.d.a.a.a.v P ~ w # r n . A +.| @.@.@.$.@.@.+.+.Z . M m   w ~ R d y.u.a.h.l.A.H.K.K.H.J.",
"k.l.C.Z.C.C.C.S.D.S.S.Y P ~ e # n M & | B C } @.@.@.@.} V B } o N m . w ~ R b j.j.l.S.K.K.K.F.x.j.h.",
"a.f.f.f.j.c.C.S.F.D.A.Y w ~ w   n M * } B m.E M A A M W m.B } o N M . 0 ~ R b x.A.G.H.F.A.l.j.f.a.u.",
"w.r.r.y.a.f.h.h.l.x.l.b , 8 , # n N * | +.J M.m.B A 0.M.J @.} < N m   : , > l a.f.j.l.k.f.s.a.u.r.r.",
"w.t.r.q.q.y.y.a.a.s.u.x e ~ e # r N 1 } +.| A G #.#.G A | #.} o N m   w ~ e x y.y.a.u.a.u.r.q.q.q.q.",
"u.a.a.a.u.t.q.r.r.w.w.l e ~ e # r N * B +.@.$.| F G | $.@.#.N m N m . w ~ R b j.f.a.r.q.q.w.r.y.a.u.",
"j.c.l.l.j.s.u.r.r.r.r.x 9 ~ w # r N M % H @.@.} 1 1 { $.$.F X N N r . w ~ e I k.f.y.w.r.r.a.h.l.k.h.",
"h.j.l.c.C.x.j.a.a.a.h.b , 9 ,   r N n X u | | M 4 4 M | | M & N m m . , 9 , g u.y.q.r.s.j.l.x.x.j.f.",
"u.u.a.a.h.l.C.C.c.c.C.Y e ~ e # n N M n . B 3 - 9 9 - 2 Z X m N r m   0 ~ Q d r.w.u.s.j.k.h.f.a.a.u.",
"q.q.q.y.u.f.j.j.c.c.k.b R ~ e # O N n N u - w - # = # 9 : * m N M r . w ~ R k w.y.a.f.a.u.y.w.q.w.q.",
"y.r.q.q.w.t.y.u.a.a.u.v e ~ P = r N n N * 6 > N #.@.N > 9 o r N N n $ w ~ Q k q.y.r.r.q.w.w.w.r.r.r.",
"j.h.a.u.w.w.*.w.w.w.r.l V ~ e = r N n N o e $ & N B o ; e X y N N n . w ~ e l r.q.q.q.r.y.y.u.u.f.h.",
"H.S.Z.j.f.u.y.t.*.q.t.l , 9 9 # r N r N & 0 % N M * N ; q X n N N n . > 8 , v f.a.u.u.u.f.f.l.c.A.F.",
"V.Z.Z.C.k.f.a.y.y.y.u.v P Q 8 # r N r M m 9 > 1 N u m , 9 n n M N n . 0 ~ P I l.j.h.f.l.c.C.c.x.x.V.",
"f.f.f.f.d.f.d.u.a.f.j.I P ~ w # n M O N N < 4 , , 4 , 0 < M n M N n . 0 ~ R T H.G.A.C.l.j.f.h.f.f.a.",
"u.y.y.y.y.y.y.y.u.a.s.v 9 ~ e # n M O N N m ; , 9 9 9 ; M N M M B n $ 0 ~ R T G.Z.x.h.a.u.y.r.w.y.y.",
"q.*.q.w.r.w.*.*.q.q.w.x w ~ w # n M n M N M M 1 % X 1 M N N n N N n $ , e e I k.f.s.u.r.w.*.q.q.q.q.",
"y.r.y.y.q.q.r.r.r.y.e.S , 8 , # n N n N N M M N M m M N N M M N N n $ 9 Q e x a.y.y.q.q.q.w.r.y.y.y.",
"j.j.d.d.d.a.a.u.a.f.a.x P ~ e # r N n N N M M N N n N N N M n N N m . w ~ R f y.w.q.q.r.u.f.f.j.j.j.",
"c.c.C.c.k.h.l.c.Z.Z.c.I > , > # X X X % % X X o % X ; % & % % & ; X   > 8 , k q.q.w.t.u.f.k.C.c.l.l.",
"f.f.k.c.c.C.F.F.J.K.K.B.g.5.1.:.' ` _ _ :.1.1.1.5.6.8.v.v.v.N.N.7.6.5.>.>.:.<.y.y.y.u.f.f.s.f.f.f.f.",
"y.y.a.f.f.k.k.k.x.C.D.J.K.G.C.h.f.a.a.a.u.a.h.c.C.C.A.Z.l.k.l.k.c.c.c.x.l.l.h.f.f.a.t.y.r.r.y.y.t.y.",
"r.r.t.y.u.a.a.d.f.f.k.c.S.K.K.S.x.j.f.s.f.u.a.f.h.k.j.f.d.y.a.d.f.f.l.l.l.k.f.d.a.u.q.q.q.q.r.w.q.q.",
"r.q.q.*.q.q.w.w.y.y.a.f.h.l.S.G.F.C.l.l.f.a.y.r.r.r.r.w.q.*.q.q.y.y.u.d.u.u.u.y.q.q.q.w.y.a.a.y.y.t.",
"u.y.y.r.r.q.w.q.q.r.r.y.u.d.f.j.j.h.f.a.a.u.y.q.q.w.r.r.t.y.y.r.w.w.w.w.r.q.q.w.q.y.u.h.k.j.f.a.a.a.",
"d.d.f.d.d.d.a.a.u.r.*.q.r.y.y.a.a.u.t.r.q.q.q.w.y.a.f.f.d.d.d.d.y.w.t.w.q.q.r.t.u.f.j.l.j.a.u.y.u.d.",
"r.t.y.u.a.u.y.y.y.r.w.q.q.q.w.w.w.*.q.q.q.r.t.u.f.f.f.a.y.t.t.y.y.y.y.y.t.y.u.f.f.f.f.d.y.t.q.q.w.w.",
"*.*.*.*.r.r.w.*.*.*.*.q.q.*.*.*.*.q.*.*.*.q.w.q.t.t.w.r.q.*.*.*.*.w.*.*.q.*.w.t.y.y.u.r.q.*.*.*.*.*."
};
