/* XPM */
static char *de8cf5b75a8f4923e23ae656cc1c960ck2DCBCBR9EDLAh9s[] = {
/* columns rows colors chars-per-pixel */
"50 50 217 2 ",
"   c #110F0A",
".  c #15110B",
"X  c #1B140B",
"o  c #1E1A0C",
"O  c #24140B",
"+  c #2B150C",
"@  c #2C1A0A",
"#  c #231B0C",
"$  c #341C0A",
"%  c #3C1C0B",
"&  c #33160E",
"*  c #231513",
"=  c #2A1816",
"-  c #3A1712",
";  c #341B1B",
":  c #361812",
">  c #2B210D",
",  c #32230C",
"<  c #3C230A",
"1  c #3B2B0D",
"2  c #362A0E",
"3  c #372A11",
"4  c #3D2324",
"5  c #421E0A",
"6  c #491F0E",
"7  c #481913",
"8  c #521B15",
"9  c #5B1D17",
"0  c #521F0E",
"q  c #631E19",
"w  c #6D1F1B",
"e  c #731F1B",
"r  c #4D2107",
"t  c #442309",
"y  c #4C2209",
"u  c #452B0B",
"i  c #4B2D0A",
"p  c #532407",
"a  c #5A2607",
"s  c #572909",
"d  c #49340F",
"f  c #54390F",
"g  c #5B3D0E",
"h  c #55350B",
"j  c #462610",
"k  c #483711",
"l  c #543D11",
"z  c #593E11",
"x  c #652906",
"c  c #6B2D06",
"v  c #612607",
"b  c #742D05",
"n  c #7D2F04",
"m  c #673508",
"M  c #7C3305",
"N  c #73211C",
"B  c #7C221C",
"V  c #6D2119",
"C  c #481F26",
"Z  c #482528",
"A  c #572930",
"S  c #692936",
"D  c #6B353C",
"F  c #772D3D",
"G  c #5B4312",
"H  c #574113",
"J  c #634410",
"K  c #654A14",
"L  c #6C4D13",
"P  c #724E11",
"I  c #6E5016",
"U  c #735416",
"Y  c #7A5413",
"T  c #7B5A17",
"R  c #67470F",
"E  c #743B43",
"W  c #843304",
"Q  c #8C3304",
"!  c #8A3707",
"~  c #943503",
"^  c #9D3C03",
"/  c #963A04",
"(  c #82221E",
")  c #8B231F",
"_  c #96291F",
"`  c #A43B02",
"'  c #B33E01",
"]  c #BD3D00",
"[  c #A33513",
"{  c #9C2722",
"}  c #962722",
"|  c #8A2622",
" . c #A62925",
".. c #B62B27",
"X. c #BB3325",
"o. c #C23E00",
"O. c #C72E29",
"+. c #CC312C",
"@. c #C93725",
"#. c #D4312C",
"$. c #D8362A",
"%. c #E9342E",
"&. c #E33630",
"*. c #EB3832",
"=. c #994505",
"-. c #815612",
";. c #835B14",
":. c #825F18",
">. c #8D5E12",
",. c #904D07",
"<. c #A94303",
"1. c #BC4301",
"2. c #B44802",
"3. c #A95506",
"4. c #BD5A04",
"5. c #8B6419",
"6. c #876118",
"7. c #966817",
"8. c #9B7319",
"9. c #A46C13",
"0. c #A4741C",
"q. c #AB7A1C",
"w. c #AA7518",
"e. c #B77A16",
"r. c #BB700B",
"t. c #C64200",
"y. c #CB4500",
"u. c #CE4A00",
"i. c #C64D01",
"p. c #D34B00",
"a. c #D84F00",
"s. c #D0410D",
"d. c #C55402",
"f. c #DC5300",
"g. c #DD5B01",
"h. c #D45901",
"j. c #D24011",
"k. c #E05700",
"l. c #E25B00",
"z. c #D96803",
"x. c #D57005",
"c. c #C5700B",
"v. c #E66201",
"b. c #E86501",
"n. c #EA6B02",
"m. c #E46E04",
"M. c #ED7403",
"N. c #EE7A04",
"B. c #E77905",
"V. c #F07D04",
"C. c #EE6517",
"Z. c #893447",
"A. c #903349",
"S. c #A53A53",
"D. c #BB3F5E",
"F. c #A7515F",
"G. c #AB495D",
"H. c #BC4560",
"J. c #B55666",
"K. c #AE5061",
"L. c #934853",
"P. c #D8466B",
"I. c #CD4E6B",
"U. c #E44C72",
"Y. c #E85276",
"T. c #EE5C7C",
"R. c #E65476",
"E. c #E0496F",
"W. c #D86579",
"Q. c #CE6073",
"!. c #E4677E",
"~. c #F1617F",
"^. c #BC861F",
"/. c #B6811D",
"(. c #C78619",
"). c #DE931C",
"_. c #D38A17",
"`. c #F28206",
"'. c #F18609",
"]. c #F48E0A",
"[. c #F3940D",
"{. c #F5980E",
"}. c #EB9C1D",
"|. c #E79519",
" X c #F59D10",
".X c #E88A0C",
"XX c #EFA01F",
"oX c #F6AB17",
"OX c #F6AC18",
"+X c #F4A213",
"@X c #F6B31B",
"#X c #C88D20",
"$X c #CE9120",
"%X c #D49421",
"&X c #DB9922",
"*X c #D69821",
"=X c #E39E23",
"-X c #E99E20",
";X c #ECA423",
":X c #E6A123",
">X c #F2A522",
",X c #F6AA25",
"<X c #E96B81",
"1X c #F36582",
"2X c #F66C86",
"3X c #F86C86",
"4X c #FA6F88",
"5X c #FC728A",
"6X c #FC738B",
"7X c #FC728A",
"8X c #F9758B",
"9X c #FB7C92",
"0X c #F67D91",
"qX c #FA8698",
"wX c #F899A6",
"eX c #F6ABB3",
"rX c #F6A8B1",
/* pixels */
"u.u.u.y.t.o.o.] o.o.o.o.t.y.y.t.t.o.o.o.o.o.o.o.t.o.t.y.u.u.y.t.o.o.] ] o.o.o.y.t.u.u.y.t.t.o.o.o.o.",
"t.t.t.y.t.o.t.t.y.u.p.a.f.f.f.p.p.u.t.t.o.o.] o.y.y.u.p.f.f.f.p.y.o.o.o.t.t.p.f.f.k.f.a.p.p.y.o.o.o.",
"y.y.t.t.t.t.y.p.a.k.k.k.f.a.u.u.y.u.u.p.u.t.] Q W / u.p.a.p.u.t.o.o.t.y.p.u.a.f.f.a.u.t.t.t.t.t.t.t.",
"f.f.f.a.p.y.t.y.y.u.p.y./ 1.t.t.t.u.t.t.t.n % Z A Z % Q t.t.t.o.o.t.p.<.<.f.a.p.u.u.t.t.t.u.u.a.f.f.",
"M.M.M.M.n.f.a.u.y.t.t.v . W y.p.a.f.f.p.x 4 J.8XqX0XJ.; n y.t.t.t.u.a.c X ~ u.t.t.t.y.u.a.f.v.M.M.M.",
"v.v.b.M.`.M.b.k.p.u.Q - - ~ p.f.l.h.d.<.; W.5X9XeXeXwXQ.: <.1.u.p.y.u.c 9 % ' t.y.u.p.f.l.M.M.n.v.v.",
"a.p.a.k.v.M.M.M.l.f.%  .8 W p.u.a X * . L.5X5X5X5X9XrX6XD . X + / k.f.r { N b a.f.k.f.k.v.v.f.a.a.a.",
"t.t.u.p.a.f.k.k.l.d.O #.B r t.a Z W.7XW.<X5X7X5X5X5X5X5XW.W.8XJ.= ^ i.O O. .t M.M.M.b.f.a.a.p.y.y.y.",
"a.p.u.t.t.y.u.p.a.` 7 &.+.+ W O <X5X5X5X5X1XY.5X5X5X5X5X5X5X5X5XJ.% r w *...@ V.n.k.f.p.t.t.t.y.p.a.",
"n.b.k.a.u.t.t.t.y.Q 7 #.+. .. ; !.7X5X5X5X1X7X5X5X5X5X7X4X5X5X2XF.. 8 +.#. .O f.a.p.y.t.y.p.a.k.v.b.",
"OX[.`.n.k.f.a.p.p.' O O.*.+...O S.4X5X5X5X5X5X5X5X5X5X3XY.T.5XQ.X | ..*.$.) $ y.t.t.t.p.f.k.v.n.M.V.",
"'.{.[.V.M.v.k.f.p.y.@ ) ..#.} = R.5X9X9X5X5X5X5X5X5X5X5X4XT.5X7XA | &.O...8 x p.p.p.p.p.a.a.a.f.k.v.",
"k.b.n.M.V.V.V.M.z.c = : ( q ; G.4XqXeXqX5X5X5X5X5X5X5X5X5X7X5X5XQ.Z w { e * $ ^ v.l.l.f.a.p.p.u.p.a.",
"p.a.f.f.l.n.n.B.m Z D.F C S I.4X5XqXqX5X5X5X5X5X3X2X5X5X5X5X5X5X5X!.E 4 4 F.J.; =.l.f.p.y.y.t.t.t.t.",
"y.y.y.u.p.a.f./ ; E.T.2X1X3X5X5X5X5X5X5X5X5X5X1XY.Y.~.5X5X5X5X5X5X5X5X5X5X9XqXQ.* 1.y.t.y.u.p.p.a.a.",
"l.k.a.u.t.t.t.$ S.Y.7X5X4X7X5X5X5X5X5X5X5X5X5X7X5X5X4X5X5X5X5X5X5X5X5X5X5X9XeX8XD b t.p.f.l.v.n.N.n.",
"k.f.k.f.a.u.t.* I.~.5X2XY.3X5X<X8X5XqXwX6X5X5X5X5X5X5X5X5X5X7XJ.4 <X5X5X5X5XwXqXJ.r a.l.M.`.V.n.v.k.",
"u.u.p.a.f.f.a.* P.T.5X1X1X5X5XA A !.8XrXeXrX6X5X5X5X5X5X5X2XD . E 7X5X5X5X5X9X6XJ.y n.n.v.l.g.a.p.p.",
"t.t.t.y.p.f.k.% S.U.1X5X5X2X3XW.* * F.4X8X8X1XT.4X5X7X1XH.4   4 7X5XT.3X5X5X5X2XS W f.a.p.y.t.t.t.t.",
"f.p.p.y.t.y.p.Q ; P.U.Y.Y.U.U.K.< < X D R.Y.U.I.U.Y.U.A.*   a y Z.Y.P.U.T.1XT.H.* ' t.y.t.y.' ~ a.a.",
"N.M.n.l.f.u.t.t.a ; Z.S.Z.; A : u.p.x . ; Z.Z , S S.S . O W u.t.6 S * A A.S.F = W t.u.p.p.Q + u M.M.",
"OXOX X`.M.k.a.u.y.n . u g 7.g b p.p.j.V     d (.Y .     B j.t.u.~ , w.;.z , 5 ` u.p.f.u.c 7 } d OXoX",
"oXOX@XOX[.N.v.f.f.u.O _.}.XX7.<.f.f.@.=   O X ,X:XX 9   & $.f.f.1.l >X}.|.G Q p.a.f.2.t q $.+.d oXOX",
"M.M.V.`.`.`.N.].[.[.1 (.>X>X0.,.n.b.@.O . _ m ,X,Xz X.X : $.f.f.^ U ,X}.,Xd 4.n.n.z.@ 8  .&.+.t b.v.",
"f.f.k.l.n.4., .X{.{.h 9.>X,X%Xt n.V.C.X.X.[ Y ,X,X8.Q @.@.s.t.t.t $X,X,X%Xu g.V.].+Xc.g 9 q N 5 f.f.",
"u.u.u.p.u.O . v.M.B.m >.>X,X,X8.p i.v.m.3.g =X,X>X>XK b 1.u.2.t 7.,X}.,Xq.p p.f.l.b.M.s  .y 5 @ u.u.",
"y.u.u.t.Q 7 - / i.t . P >X,X,X/./.K u f 7.=X,X,X>X,X;X0.L J T /.I &X,X,X:.$ <.p.p.f.f.5 ( b ' Q t.t.",
"f.f.f.f.W q ..O O 5 b f }.,X,XT > T (.>X,X,X>X,X,X,X,X,X,X(.L X K >X,X,XG < X / l.f.u.% ( b p.p.f.f.",
"n.N.M.M.3.7 +.O p t.y.1 ).,X,X,X>   , l :.q.#X%X%X%X/.5.G >   . $X,X,X,X1 r.,.O 2.a.y.r } a l.n.n.v.",
"v.n.M.N.B.< 7 O i.f.v.$ (.>X>X,X7.. a <.5     X o .   f r.f   l ,X>X>X;X< h.f.% r y.u.M ( y x.M.b.l.",
"p.a.f.f.l.z., i V.V.`.i w.,X,X>X>XH . =.O           . $ ,.. > &X,X,X,X0.a f.p.W . a.k.i.% N / f.f.p.",
"t.t.t.p.a.k.t s V.V.M.m >.}.,X,X,X;XH .                 . > $X,XXX,X,XU n t.t.~   a.k.f.r B v y.y.t.",
"u.u.y.t.y.u.a @ M 2.f.a J |.,X,X,X,X,Xq.d o . . . .   > I =X,X,X>X,X-Xu Q t.' b X u.u.y.c B p y.u.u.",
"n.l.f.a.y.' O 8 ( O ' r # g 7.5.=X,X,X,X,X%Xq.5.:.7.^.:X,X,X,X&Xq.e.d X =.W + . @ t.t.y.W ( 0 f.l.v.",
"oX].`.b.k.c B %.%.q x n J Y k T > T 3 2 :.&X0.I :.&X%XK d L :.3 T > 7.> z.5 +.&.q x a.a.b B s V.]. X",
"'.'.'.V.n.$ O.%.%.#.+ / i (.K ,X(.k #X$XL > K 0.5., 2 0.#X5.H ;X:Xl e.k R N %.*.$.@ g.n.u ( m N.M.N.",
"k.k.k.k.k.p { ( +.- + z.s e.H ,X,Xl ,X,X,XL ,X,X,X0.q.,X,Xq.0.,X$XY P 8.k N { +.$.@ B.3.8 q =.k.k.k.",
"a.p.p.p.p.^ & - 8 O ^ k.M -.-.&X,Xl :X,X,XI ;X,X,X5.^.,X,X6.*X,X0.e.1 r.e.@ B 8 e m d.6 } r t.u.u.p.",
"t.t.t.y.y.t.~ b n ^ y.p.` f 9.q.,XT #X,X,XU :X,X,XU $X,X,XU ,X,XY (.X p x.,.i < a ^ % ) 7 ^ t.t.t.t.",
"p.u.p.p.y.t.y.u.p.p.y.t.' $ (.L ,X0.0.,X,XT &X,X,XL &X,X=XU ,X>Xz w.& ( % c ! W r 8 { 5 ~ y.u.a.a.p.",
"v.v.k.k.f.f.f.f.k.k.f.a.p.a 9.l ,X*X5.,X,X:.$X,X,XG =X,X%XU ,X#X-.G p + B { {  . .9 % ' f.k.l.v.b.v.",
"V.`.`.V.n.v.M.N.`.'.`.M.l./ J Y _.}.U ,X,X5.^.,X,Xl ;X,Xq.7.,X6.e.@ u.t.b % + $ a ` u.f.l.n.V.V.M.M.",
"l.l.n.V.V.`. X XoX@X@XoX[.z.# g 9.|.P ).}.5.q.,X,Xk ,X,X7./.;Xl L t n.k.f.a.u.p.p.p.a.k.k.k.l.l.k.l.",
"p.p.f.k.l.n.n.n.M.`.[.oX@X+Xc.y 2 >.g (.|.>.7.|.|.z |.|.L w.Y X m x.`.V.M.M.v.l.k.f.p.p.u.p.u.p.u.p.",
"y.u.p.p.a.f.f.k.l.l.n.N.[.@X@X.X3.u . 1 L f J 7.7.d -.J # # a <.g.v.n.n.M.n.l.k.a.p.y.t.t.t.u.y.t.t.",
"u.y.t.t.t.t.y.y.u.p.f.k.v.M.[.+X{.`.z.3.! c a p r a c n / ] t.t.p.a.f.f.f.a.p.p.t.t.t.u.p.f.f.p.p.u.",
"a.a.p.u.y.u.y.t.t.t.u.a.a.f.l.b.b.v.f.f.f.a.u.t.t.y.u.u.u.p.p.u.y.y.u.y.y.t.t.y.y.u.a.l.n.v.k.f.f.f.",
"f.k.k.k.f.f.f.f.a.u.t.t.u.p.p.f.f.a.p.u.t.t.t.u.p.f.k.l.k.f.k.f.p.u.u.y.t.t.u.p.a.k.v.n.n.f.a.p.a.k.",
"u.p.p.a.f.f.a.p.u.u.u.t.t.t.y.y.y.t.t.t.t.y.u.a.k.l.k.f.p.u.u.p.p.p.p.p.u.p.a.k.l.l.l.k.a.u.t.t.y.y.",
"o.o.o.t.u.u.t.t.o.o.t.t.t.o.o.o.o.t.o.o.t.t.t.y.p.u.y.u.t.o.o.o.t.t.o.t.t.t.t.u.p.p.p.u.t.o.o.o.o.o."
};
