/* XPM */
static char * magdalena_diabolica_50x50_xpm[] = {
"50 50 829 2",
"aa c None",
"ab c #1e0000",
"ac c #270000",
"ad c #2a0000",
"ae c #280000",
"af c #220000",
"ag c #361200",
"ah c #3a0e04",
"ai c #330000",
"aj c #2d0300",
"ak c #491c0a",
"al c #754520",
"am c #8b5829",
"an c #804e24",
"ao c #592b11",
"ap c #370b01",
"aq c #2b0000",
"ar c #381c00",
"as c #370f03",
"at c #1f0000",
"au c #390d04",
"av c #3b0e04",
"aw c #1c0000",
"ax c #2f0500",
"ay c #804d24",
"az c #e8ab53",
"aA c #ffc25e",
"aB c #ffbf5c",
"aC c #f6b557",
"aD c #b87f3c",
"aE c #4f210d",
"aF c #2e0200",
"aG c #300c00",
"aH c #340c02",
"aI c #340d03",
"aJ c #812110",
"aK c #4b1207",
"aL c #260000",
"aM c #2f0300",
"aN c #491d0b",
"aO c #5e3115",
"aP c #915e2c",
"aQ c #fbbb5b",
"aR c #e39a49",
"aS c #ca7e3a",
"aT c #eea850",
"aU c #ffba5a",
"aV c #ffbb5a",
"aW c #dea14d",
"aX c #4e220d",
"aY c #210000",
"aZ c #000000",
"a0 c #0b0000",
"a1 c #61180a",
"a2 c #681b0c",
"a3 c #270700",
"a4 c #170700",
"a5 c #5c1709",
"a6 c #d43d23",
"a7 c #541408",
"a8 c #3a0d03",
"a9 c #97612e",
"a! c #e8aa53",
"a# c #ffbd5c",
"a$ c #ffc05d",
"a% c #fbb657",
"a& c #bc6c30",
"a( c #af5d28",
"a) c #e39b4a",
"a* c #ffbc5b",
"a+ c #f4ae54",
"a, c #f6b055",
"a- c #ffbf5d",
"a. c #d19547",
"a/ c #875427",
"a: c #643517",
"a; c #380c02",
"a< c #1c0400",
"a= c #7b2010",
"a> c #c53820",
"a? c #3e0e04",
"a@ c #2b0902",
"a[ c #8d2312",
"a] c #ef492c",
"a^ c #7c1d0f",
"a_ c #2e0901",
"a` c #aa7236",
"a{ c #df9547",
"a| c #eca54f",
"a} c #ffbb5b",
"a~ c #f7b255",
"ba c #f5b054",
"bb c #ffb95a",
"bc c #d58b41",
"bd c #d78d42",
"be c #ffc15d",
"bf c #fcba5a",
"bg c #bc813e",
"bh c #481b0b",
"bi c #310901",
"bj c #aa2e19",
"bk c #e7462a",
"bl c #5f1509",
"bm c #1f0600",
"bn c #340c03",
"bo c #9f2514",
"bp c #f14d2e",
"bq c #cb3821",
"br c #5b1709",
"bs c #9a6630",
"bt c #fab859",
"bu c #feb95a",
"bv c #d0853e",
"bw c #e8a04c",
"bx c #feb859",
"by c #fdb759",
"bz c #f2ac52",
"bA c #f7b055",
"bB c #ecad54",
"bC c #5d2e14",
"bD c #76190c",
"bE c #e5462a",
"bF c #e44429",
"bG c #751a0c",
"bH c #260a00",
"bI c #330d03",
"bJ c #972111",
"bK c #e24328",
"bL c #f55131",
"bM c #d43c24",
"bN c #612310",
"bO c #efae54",
"bP c #ffb959",
"bQ c #df9546",
"bR c #b15f2a",
"bS c #b7662d",
"bT c #eba34e",
"bU c #c58d44",
"bV c #741c0f",
"bW c #ec482b",
"bX c #f45131",
"bY c #d33821",
"bZ c #6f180b",
"b0 c #260b00",
"b1 c #2e0000",
"b2 c #2b0700",
"b3 c #71180b",
"b4 c #c9301b",
"b5 c #ee4a2c",
"b6 c #ac331e",
"b7 c #875327",
"b8 c #f7b155",
"b9 c #fdb758",
"b! c #e29a48",
"b# c #b05e29",
"b$ c #ab5725",
"b% c #d0833c",
"b& c #efb256",
"b( c #6e3218",
"b) c #d54328",
"b* c #e44327",
"b+ c #bc2a17",
"b, c #4f1006",
"b- c #220500",
"b. c #270600",
"b/ c #3f1204",
"b: c #954f1b",
"b; c #63290d",
"b< c #7f160b",
"b= c #78190b",
"b> c #753f1b",
"b? c #ecae54",
"b@ c #f7b256",
"b[ c #e69f4b",
"b] c #fbb658",
"b^ c #f9b356",
"b_ c #b96a2f",
"b` c #eda64f",
"b{ c #e09747",
"b| c #cd9346",
"b} c #682b12",
"b~ c #82190c",
"ca c #73170b",
"cb c #58250b",
"cc c #2b0600",
"cd c #240000",
"ce c #3b1004",
"cf c #ad5e20",
"cg c #f38c32",
"ch c #d98534",
"ci c #9b5c23",
"cj c #ba7b35",
"ck c #f8b456",
"cl c #ffbe5c",
"cm c #c77a38",
"cn c #f3ad53",
"co c #eca54e",
"cp c #f1aa51",
"cq c #feb959",
"cr c #fab457",
"cs c #ffbd5b",
"ct c #eba84e",
"cu c #a8692a",
"cv c #a15c22",
"cw c #e58731",
"cx c #a85a1f",
"cy c #3a0f03",
"cz c #2d0000",
"cA c #2e0600",
"cB c #854317",
"cC c #ef882f",
"cD c #f0983f",
"cE c #f7ae52",
"cF c #ffba5b",
"cG c #eaa24d",
"cH c #feb858",
"cI c #ffba59",
"cJ c #db9244",
"cK c #f3ab52",
"cL c #ffbc5a",
"cM c #ffba58",
"cN c #fcb152",
"cO c #f18e34",
"cP c #884417",
"cQ c #2d0500",
"cR c #411505",
"cS c #cf7529",
"cT c #ec842e",
"cU c #f9a94c",
"cV c #db9346",
"cW c #b8682e",
"cX c #f0ad54",
"cY c #d49749",
"cZ c #feb759",
"c0 c #ffb859",
"c1 c #feb758",
"c2 c #f2af55",
"c3 c #d09347",
"c4 c #f9b357",
"c5 c #f4993f",
"c6 c #d37528",
"c7 c #451706",
"c8 c #150000",
"c9 c #5e280d",
"c! c #e8852f",
"c# c #e8822d",
"c$ c #f39d43",
"c% c #f4af55",
"c& c #f3b156",
"c( c #66391a",
"c) c #805126",
"c* c #e7aa52",
"c+ c #f5b256",
"c, c #f8b458",
"c- c #c08941",
"c. c #5a2f14",
"c/ c #b0783a",
"c: c #fab356",
"c; c #c57736",
"c< c #f5af55",
"c= c #f1973e",
"c> c #ea842e",
"c? c #642d0f",
"c@ c #200000",
"c[ c #6c3311",
"c] c #ed872f",
"c^ c #e9832d",
"c_ c #e88530",
"c` c #f7a74b",
"c{ c #e5a550",
"c| c #5b230f",
"c} c #851b0f",
"c~ c #622611",
"da c #a87538",
"db c #f9b758",
"dc c #efad54",
"dd c #af7b3b",
"de c #feba5a",
"df c #eeab53",
"dg c #bf8942",
"dh c #e1a44f",
"di c #7d4e24",
"dj c #6e1c0d",
"dk c #661409",
"dl c #a87236",
"dm c #f5a84d",
"dn c #e98630",
"do c #ee872f",
"dp c #763913",
"dq c #1a0000",
"dr c #e8842e",
"ds c #e9832e",
"dt c #e8832d",
"du c #e7812d",
"dv c #ed9039",
"dw c #ba833f",
"dx c #6d180b",
"dy c #e63a22",
"dz c #ca301c",
"dA c #781d10",
"dB c #6b3d1d",
"dC c #ca9146",
"dD c #89582a",
"dE c #f3b056",
"dF c #c58b43",
"dG c #b47c3c",
"dH c #f8ba5b",
"dI c #a16f34",
"dJ c #612a15",
"dK c #9d2414",
"dL c #e13821",
"dM c #ae2816",
"dN c #71421d",
"dO c #f5a44a",
"dP c #f29a40",
"dQ c #ea8731",
"dR c #eb862f",
"dS c #662e0f",
"dT c #3e1204",
"dU c #c66e26",
"dV c #f0872f",
"dW c #e8832e",
"dX c #e9822d",
"dY c #e8812d",
"dZ c #f9a348",
"d0 c #c48b43",
"d1 c #64180b",
"d2 c #df3821",
"d3 c #de351f",
"d4 c #e74e34",
"d5 c #c6694f",
"d6 c #671e0e",
"d7 c #6d3f1d",
"d8 c #76431d",
"d9 c #f6a74b",
"d! c #ce8236",
"d# c #693a19",
"d$ c #6b3517",
"d% c #832d1c",
"d& c #e47657",
"d( c #e33b23",
"d) c #e33821",
"d* c #a02414",
"d+ c #7b4c23",
"d, c #ffb657",
"d- c #e98530",
"d. c #e8812c",
"d/ c #ee862f",
"d: c #d27629",
"d; c #441606",
"d< c #130000",
"d= c #2d0600",
"d> c #60290d",
"d? c #d97b2b",
"d@ c #f1882f",
"d[ c #ef862f",
"d] c #eb832e",
"d^ c #e38733",
"d_ c #5b270d",
"d` c #9f2516",
"d{ c #e23821",
"d| c #e33b24",
"d} c #ec472e",
"d~ c #932113",
"ea c #713611",
"eb c #d8792a",
"ec c #ea832d",
"ed c #eb842d",
"ee c #a65a1e",
"ef c #65170a",
"eg c #e13b24",
"eh c #e9462c",
"ei c #d0331e",
"ej c #591509",
"ek c #b97d39",
"el c #f4963c",
"em c #ed842e",
"en c #e4822d",
"eo c #723512",
"ep c #300602",
"eq c #310602",
"er c #521f09",
"es c #99501b",
"et c #b56422",
"eu c #ab5e20",
"ev c #e17e2c",
"ew c #f0862f",
"ex c #c66f26",
"ey c #5e270d",
"ez c #711b0d",
"eA c #8c2011",
"eB c #6f190c",
"eC c #6d3211",
"eD c #df7e2c",
"eE c #ed852e",
"eF c #8f4b19",
"eG c #6b1b0d",
"eH c #972213",
"eI c #8f2112",
"eJ c #5e1b0b",
"eK c #95511c",
"eL c #ee8831",
"eM c #ef852e",
"eN c #bd6924",
"eO c #ac5f20",
"eP c #a3571d",
"eQ c #61290d",
"eR c #330801",
"eS c #550000",
"eT c #5d1308",
"eU c #571006",
"eV c #723812",
"eW c #da7b2b",
"eX c #e9842e",
"eY c #b16322",
"eZ c #9f591e",
"e0 c #9a541c",
"e1 c #b56523",
"e2 c #eb842e",
"e3 c #c26d25",
"e4 c #9b551c",
"e5 c #98541c",
"e6 c #a55d1f",
"e7 c #a2571e",
"e8 c #dc7c2b",
"e9 c #a95e20",
"e! c #531808",
"e# c #6d160a",
"e$ c #430e04",
"e% c #2e0500",
"e& c #130900",
"e( c #360e02",
"e) c #390e04",
"e* c #310c03",
"e+ c #8e1f0f",
"e, c #bf2816",
"e- c #71160a",
"e. c #541d09",
"e/ c #652e0f",
"e: c #3d0f04",
"e; c #58220b",
"e< c #854316",
"e= c #b05f21",
"e> c #c86f26",
"e? c #d97a2a",
"e@ c #e2802c",
"e[ c #e5822d",
"e] c #e07e2c",
"e^ c #d47629",
"e_ c #be6924",
"e` c #9a501b",
"e{ c #693110",
"e| c #431406",
"e} c #3d0d03",
"e~ c #5a220b",
"fa c #5d1407",
"fb c #a72212",
"fc c #bb2816",
"fd c #4b1106",
"fe c #120000",
"ff c #2d0b02",
"fg c #5d190b",
"fh c #5c190a",
"fi c #330c03",
"fj c #2c0b02",
"fk c #6e180a",
"fl c #c22a17",
"fm c #bc2916",
"fn c #911a0c",
"fo c #9d1e10",
"fp c #7a1a0b",
"fq c #320a01",
"fr c #320801",
"fs c #3e1104",
"ft c #4a1908",
"fu c #54210a",
"fv c #5a260c",
"fw c #5a250b",
"fx c #532009",
"fy c #451607",
"fz c #380d03",
"fA c #2d0400",
"fB c #3c0d02",
"fC c #972010",
"fD c #a42011",
"fE c #a52010",
"fF c #c82d19",
"fG c #a32312",
"fH c #3d0e03",
"fI c #380e03",
"fJ c #882713",
"fK c #de3f23",
"fL c #6a1b0c",
"fM c #0f0000",
"fN c #270b00",
"fO c #541307",
"fP c #bd2a17",
"fQ c #db3c22",
"fR c #aa2613",
"fS c #d8381f",
"fT c #b82b17",
"fU c #450f04",
"fV c #1a0d00",
"fW c #3a0e00",
"fX c #3c0e03",
"fY c #320500",
"fZ c #330902",
"f0 c #300603",
"f1 c #350a03",
"f2 c #3d0f03",
"f3 c #280800",
"f4 c #5e1408",
"f5 c #d2351e",
"f6 c #c22f1a",
"f7 c #c1311a",
"f8 c #8a1e0e",
"f9 c #330c01",
"f! c #9a2c17",
"f# c #ec4426",
"f$ c #de3b21",
"f% c #5e1609",
"f& c #100800",
"f( c #441004",
"f) c #ac2413",
"f* c #df3d23",
"f+ c #b42b17",
"f, c #db3d22",
"f- c #de3c22",
"f. c #791a0c",
"f/ c #320c03",
"f: c #3c0e04",
"f; c #421004",
"f< c #3e0e03",
"f= c #3c0f03",
"f> c #3c1004",
"f? c #3e0f04",
"f@ c #3b0e03",
"f[ c #380d02",
"f] c #a22614",
"f^ c #ea4326",
"f_ c #c0301a",
"f` c #d1381f",
"f{ c #ce321c",
"f| c #6f180a",
"f} c #2e0b02",
"f~ c #401005",
"ga c #611a0b",
"gb c #b0331c",
"gc c #b22b17",
"gd c #701a0c",
"ge c #1f0900",
"gf c #3a0e02",
"gg c #981f0f",
"gh c #db3920",
"gi c #be2f19",
"gj c #cf371e",
"gk c #e84326",
"gl c #c12f1a",
"gm c #501106",
"gn c #411004",
"go c #401004",
"gp c #3a0e03",
"gq c #6d180a",
"gr c #db3b21",
"gs c #e74326",
"gt c #b82c18",
"gu c #da3c21",
"gv c #c12c18",
"gw c #561307",
"gx c #2c0b00",
"gy c #521508",
"gz c #942a15",
"gA c #430f05",
"gB c #60170a",
"gC c #320d03",
"gD c #320c02",
"gE c #7f1b0c",
"gF c #d3341d",
"gG c #ca351d",
"gH c #c4321b",
"gI c #e74226",
"gJ c #e54024",
"gK c #a82715",
"gL c #2d0c02",
"gM c #571307",
"gN c #c8331c",
"gO c #e84226",
"gP c #e14024",
"gQ c #b62c17",
"gR c #de3d22",
"gS c #af2614",
"gT c #451005",
"gU c #190000",
"gV c #60190b",
"gW c #932915",
"gX c #290a02",
"gY c #380f04",
"gZ c #3c0f07",
"g0 c #2c0d03",
"g1 c #631509",
"g2 c #c72e19",
"g3 c #d53a20",
"g4 c #bb2d18",
"g5 c #e74225",
"g6 c #e54125",
"g7 c #e43f24",
"g8 c #ac2916",
"g9 c #531206",
"g! c #350c02",
"g# c #390e03",
"g$ c #350e02",
"g% c #360d02",
"g& c #621509",
"g( c #c2311b",
"g) c #e64125",
"g* c #d93c22",
"g+ c #ba2d18",
"g, c #dd3b21",
"g- c #982110",
"g. c #4d1308",
"g/ c #a42e18",
"g: c #3a0e05",
"g; c #2a0800",
"g< c #4d1106",
"g= c #b82816",
"g> c #dc3d22",
"g? c #b52b16",
"g@ c #e44125",
"g[ c #d3381f",
"g] c #da3b21",
"g^ c #ce351d",
"g_ c #922211",
"g` c #661609",
"g{ c #6a170a",
"g| c #9f2513",
"g} c #d93a20",
"g~ c #d83b21",
"ha c #cc361e",
"hb c #d6361e",
"hc c #7d1b0c",
"hd c #310c02",
"he c #310d02",
"hf c #9d2d17",
"hg c #3f0e03",
"hh c #a52312",
"hi c #dd3c22",
"hj c #b62b17",
"hk c #df3e23",
"hl c #ca341d",
"hm c #c7331c",
"hn c #e74124",
"ho c #df3c22",
"hp c #cf351e",
"hq c #d3371e",
"hr c #e03c22",
"hs c #e74125",
"ht c #e94326",
"hu c #c4311b",
"hv c #cd351d",
"hw c #cf371f",
"hx c #ca301a",
"hy c #621609",
"hz c #2c0b03",
"hA c #1a0500",
"hB c #7e2311",
"hC c #802412",
"hD c #8c1e0e",
"hE c #d93820",
"hF c #bc2e19",
"hG c #d73a21",
"hH c #c1301a",
"hI c #c3311a",
"hJ c #d53920",
"hK c #e44024",
"hL c #bd2e19",
"hM c #d63920",
"hN c #d83a21",
"hO c #b92916",
"hP c #4b1105",
"hQ c #1e0a00",
"hR c #080000",
"hS c #76210f",
"hT c #922814",
"hU c #1e0600",
"hV c #2f0c02",
"hW c #72180a",
"hX c #d0331c",
"hY c #c5321b",
"hZ c #cc351e",
"h0 c #bb2e18",
"h1 c #e64225",
"h2 c #c02f19",
"h3 c #e54025",
"h4 c #b82c17",
"h5 c #dd3d22",
"h6 c #e34024",
"h7 c #d93920",
"h8 c #a32311",
"h9 c #210800",
"h! c #972a16",
"h# c #7d2010",
"h$ c #1f0800",
"h% c #290b00",
"h& c #511206",
"h( c #ba2816",
"h) c #c22f19",
"h* c #c3311b",
"h+ c #de3d23",
"h, c #e23f24",
"h- c #e34025",
"h. c #de3e23",
"h/ c #b12915",
"h: c #ca2e19",
"h; c #781a0b",
"h< c #2c0a01",
"h= c #0a0000",
"h> c #090000",
"h? c #250700",
"h@ c #661c0d",
"h[ c #c2341c",
"h] c #4d1206",
"h^ c #350c03",
"h_ c #74190b",
"h` c #b12413",
"h{ c #b02614",
"h| c #db3a21",
"h} c #b72b17",
"h~ c #d43920",
"ia c #c5301a",
"ib c #a82111",
"ic c #901f0f",
"id c #571508",
"ie c #872211",
"if c #6b1b0c",
"ig c #6e1e0d",
"ih c #c5351d",
"ii c #6b1a0b",
"ij c #2a1500",
"ik c #360c03",
"il c #81190b",
"im c #af2413",
"in c #bf2a17",
"io c #ad2412",
"ip c #cc311b",
"iq c #d5361e",
"ir c #da3920",
"is c #ba2b17",
"it c #ca321b",
"iu c #d7371f",
"iv c #d2341d",
"iw c #c22c18",
"ix c #ad2312",
"iy c #b82715",
"iz c #931d0e",
"iA c #631508",
"iB c #4b1205",
"iC c #871f0f",
"iD c #a12613",
"iE c #a42815",
"iF c #8b2211",
"iG c #531407",
"iH c #2f0d02",
"iI c #2d0b03",
"iJ c #380e04",
"iK c #491105",
"iL c #601508",
"iM c #6a1609",
"iN c #881c0d",
"iO c #9a2010",
"iP c #a32211",
"iQ c #961d0e",
"iR c #9c2010",
"iS c #9f2111",
"iT c #941f0f",
"iU c #7b190b",
"iV c #611408",
"iW c #521307",
"iX c #3e0f03",
"iY c #1f0f00",
"iZ c #2a0c03",
"i0 c #340d01",
"i1 c #330d01",
"i2 c #2b0a02",
"i3 c #2a0c00",
"i4 c #4e1106",
"i5 c #7b1b0c",
"i6 c #511307",
"i7 c #390d03",
"i8 c #611609",
"i9 c #811c0d",
"i! c #400f04",
"i# c #230800",
"i$ c #7b1e0e",
"i% c #ce2e19",
"i& c #67170a",
"i( c #841d0d",
"i) c #571509",
"i* c #1d0600",
"i+ c #2a0e00",
"i, c #421005",
"i- c #d53d22",
"i. c #df3f23",
"i/ c #501508",
"i: c #170b00",
"i; c #eb4326",
"i< c #c2381f",
"i= c #6f1f0e",
"i> c #390f05",
"i? c #310d03",
"i@ c #521609",
"i[ c #922a16",
"i] c #902915",
"i^ c #6f200f",
"i_ c #3b0f04",
"i` c #421206",
"i{ c #7a2311",
"i| c #932b16",
"i} c #872713",
"i~ c #300d00",
"ja c #3f0000",
"jb c #330b03",
"jc c #2d0a02",
"jd c #2b0c02",
"je c #280a03",
"jf c #2a0a00",
"jg c #2b0903",
"jh c #2f0a02",
"ji c #350e04",
"jj c #7f0000",
"aaaaaaaaaaaaaaaaaaaaaaaaaaaaaaaaaaaaaaaaaaaaaaaaaaaaaaaaaaaaaaaaaaaaaaaaaaaaaaaaaaaaaaaaaaaaaaaaaaaa",
"aaaaaaaaaaaaaaaaaaaaaaaaaaaaaaaaaaaaaaaaaaaaaaaaaaaaaaaaaaaaaaaaaaaaaaaaaaaaaaaaaaaaaaaaaaaaaaaaaaaa",
"aaaaaaaaaaaaaaaaaaaaaaaaaaaaaaaaaaaaaaaaaaaaaaaaaaaaaaaaaaaaaaaaaaaaaaaaaaaaaaaaaaaaaaaaaaaaaaaaaaaa",
"aaaaaaaaaaaaaaaaaaaaaaaaaaaaaaaaaaaaaaaaaaaaaaaaaaaaaaaaaaaaaaaaaaaaaaaaaaaaaaaaaaaaaaaaaaaaaaaaaaaa",
"aaaaaaaaaaaaaaaaaaaaaaaaaaaaaaaaaaaaaaaaaaaaaaaaaaaaaaaaaaaaaaaaaaaaaaaaaaaaaaaaaaaaaaaaaaaaaaaaaaaa",
"aaaaaaaaaaaaaaaaaaaaaaaaaaaaaaaaaaaaaaaaaaaaabacadaeafaaaaaaaaaaaaaaaaaaaaaaaaaaaaaaaaaaaaaaaaaaaaaa",
"aaaaaaaaaaaaaaaaaaaaaaaaaaagahaaaaaaaaaaaiajakalamanaoapaqaaaaaaaaaaarasaaaaaaaaaaaaaaaaaaaaaaaaaaaa",
"aaaaaaaaaaaaaaaaaaaaaaaaatauavaaaaaaawawaxayazaAaAaBaCaDaEaFaaaaaaaaaGavaHaaaaaaaaaaaaaaaaaaaaaaaaaa",
"aaaaaaaaaaaaaaaaaaaaaaaaaIaJaKaaaLaMaNaOaPaQaRaSaTaUaVaAaWaXataYaZaaa0a1a2a3aaaaaaaaaaaaaaaaaaaaaaaa",
"aaaaaaaaaaaaaaaaaaaaaaa4a5a6a7awa8a9a!a#a$a%a&a(a)a*a+a,a-a.a/a:a;ada<a=a>a?aZaaaaaaaaaaaaaaaaaaaaaa",
"aaaaaaaaaaaaaaaaaaaaaaa@a[a]a^a_a`aAa#a{a|a}a~babba}bcbda}a#bebfbgbhbibjbkblbmaaaaaaaaaaaaaaaaaaaaaa",
"aaaaaaaaaaaaaaaaaaaaaabnbobpbqbrbsbtbubvbwaVbbaUbxbxbybybxbzbAa#bBbCbDbEbFbGbHaaaaaaaaaaaaaaaaaaaaaa",
"aaaaaaaaaaaaaaaaaaaaaabIbJbKbLbMbNbOaUaUaUbxbxbxbPbxbxa}bQbRbSbTbUbVbWbXbYbZb0aaaaaaaaaaaaaaaaaaaaaa",
"aaaaaaaaaaaaaaaaaaaab1b2b3b4b5b6b7a#a}bxbxbxbxbxb8b9bxaVb!b#b$b%b&b(b)b*b+b,b-aaaaaaaaaaaaaaaaaaaaaa",
"aaaaaaaaaaaaaaaaaab.b/b:b;b<b=b>b?b@b[b]bxbxbPb^b_bdaVbxbPb`b{bAa#b|b}b~cacbb/ccaaaaaaaaaaaaaaaaaaaa",
"aaaaaaaaaaaaaaaacdcecfcgchcicjckclcmb#cnaUbxbxbxcocpcqbxbxcraUbPbxcsctcucvcwcxcyczaaaaaaaaaaaaaaaaaa",
"aaaaaaaaaaaaaaaacAcBcCcDcqcEa#cFcscGbTcqbxbxbxbxaUbPcHbxcIcJcKbPaUa*bbcLcMcNcOcPcQaaaaaaaaaaaaaaaaaa",
"aaaaaaaaaaaaaaatcRcScTcUcVcWb]cXcYa$cscZbxbxc0c0bxcHc0bxc1bxbxclc2c3bxcZc4a}c5c6c7c8aaaaaaaaaaaaaaaa",
"aaaaaaaaaaaaaaatc9c!c#c$c%b`bbc&c(c)c*aBbPbxc+c,bxbPb]cZc1aUcsc-c.c/csc:c;c<c=c>c?ataaaaaaaaaaaaaaaa",
"aaaaaaaaaaaaaac@c[c]c^c_c`c0cFc{c|c}c~dadbcldcdddedfdga}cldhdidjdkdla#bbc<dmdndodpaYaaaaaaaaaaaaaaaa",
"aaaaaaaaaaaaaadqc9drdsdtdudva#dwdxdydzdAdBdCa-dDdEdFdGdHdIdJdKdLdMdNa}dOdPdQc^dRdSafaaaaaaaaaaaaaaaa",
"aaaaaaaaaaaaaaaZdTdUdVdWdXdYdZd0d1d2d3d4d5d6d7d8d9d!d#d$d%d&d(d)d*d+d,d-d.dsd/d:d;d<aaaaaaaaaaaaaaaa",
"aaaaaaaaaaaaaaaad=d>d?d@d/d[d]d^d_d`d{d|d}d~eaebecedeeefegehd{eiejekelemd[d@eneoepaaaaaaaaaaaaaaaaaa",
"aaaaaaaaaaaaaaaaaaeqereseteuevewexeyezeAeBeCeDeEc#dXd/eFeGeHeIeJeKeLeMeNeOePeQeReSaaaaaaaaaaaaaaaaaa",
"aaaaaaaaaaaaaaaaaaaaaeeReTeUeVeWeXeYeZe0e1dreEc^c^c^e2doe3e4e5e6e7e8e9e!e#e$e%aaaae&e(e)aaaaaaaaaaaa",
"aaaaaaaaaaaaaaaaaaaaaae*e+e,e-e.e/e:e;e<e=e>e?e@e[e[e]e^e_e`e{e|e}e~fafbfcfdfeaZfffgfhfiaaaaaaaaaaaa",
"aaaaaaaaaaaaaaaaaaaaaafjfkflfmfnfofpfqcdfrfsftfufvfwfxfyfzfAaYfBfCfDfEfFfGfHaZfIfJfKfLfMaaaaaaaaaaaa",
"aaaaaaaaaaaaaaaaaaaaaafNfOfPfQfRfSfTfUfVfWfXfYaZfZf0aZf1f2cdf3f4f5f6f7fSf8f9fIf!f#f$f%f&aaaaaaaaaaaa",
"aaaaaaaaaaaaaaaaaaaaaac8f(f)f*f+f,f-f.f/f:f;f<f=avfXf>f?f;f@f[f]f^f_f`f{f|f}f~gagbgcgdgeaaaaaaaaaaaa",
"aaaaaaaaaaaaaaaaaaaaaaaagfggghgigjgkglgmf=fXf2gngogof;fHfHgpgqgrgsgtgugvgwgxgxgygzgAgBgCaaaaaaaaaaaa",
"aaaaaaaaaaaaaaaaaaaaaaaagDgEgFgGgHgIgJgKf(fjf@gngogognahgLgMgNgOgPgQgRgSgTgUaagVgWgXgYgZaaaaaaaaaaaa",
"aaaaaaaaaaaaaaaaaaaaaaaag0g1g2g3g4g5g6g7g8g9g!e(g#fIg$g%g&g(g)g)g*g+g,g-e)aaaag.g/g:aaaaaaaaaaaaaaaa",
"aaaaaaaaaaaaaaaaaaaaaaaag;g<g=g>g?g@g)g[g]g^g_g`gwgwg{g|g}g~hagOgjgHhbhchdaaaahehffgaZaaaaaaaaaaaaaa",
"aaaaaaaaaaaaaaaaaaaaaaaaaZhghhhihjhkgOhlhmf^hnhohphqhrhshthuhvf^gHhwhxhyhzaaaahAhBhChAaaaaaaaaaaaaaa",
"aaaaaaaaaaaaaaaaaaaaaaaaaabnhDhEhFhGgOf`hHg5g@gIhIhJg5hKg)hLhMgOg+hNhOhPhQaaaahRhShThUaaaaaaaaaaaaaa",
"aaaaaaaaaaaaaaaaaaaaaaaaaahVhWhXhYhZgOhGh0g5hKh1h2g[g)hKh3h4h5h6hjh7h8fXaaaaaah9h!h#h$aaaaaaaaaaaaaa",
"aaaaaaaaaaaaaaaaaaaaaaaaaah%h&h(h)h*hth+h4g6hKh1h2g[g)hKh,hjh-h.h/h:h;h<h=h>h?h@h[h]c8aaaaaaaaaaaaaa",
"aaaaaaaaaaaaaaaaaaaaaaaaaaaZh^h_h`h{h|h.h}hKg)gkhHh~gIg)h+h4f*iaibicidieifigh!ihiiffaaaaaaaaaaaaaaaa",
"aaaaaaaaaaaaaaaaaaaaaaaaaaaaijikgMiliminioipiqirisitiuiviwixiyiziAf@iBiCiDiEiFiGiHaaaaaaaaaaaaaaaaaa",
"aaaaaaaaaaaaaaaaaaaaaaaaaaaaaaaaiIiJiKiLiMiNiOiPiQiRiSiTiUiViWiXgDatiYiZi0i1i2hQaaaaaaaaaaaaaaaaaaaa",
"aaaaaaaaaaaaaaaaaaaaaaaaaaaaaaaaaaaai3i4i5i6i7f?f?a?f=fzi8i9i!aZaaaaaaaaaaaaaaaaaaaaaaaaaaaaaaaaaaaa",
"aaaaaaaaaaaaaaaaaaaaaaaaaaaaaaaaaaaZi#i$i%i&fNaZaZaZaaf}i(h:i)i*aaaaaaaaaaaaaaaaaaaaaaaaaaaaaaaaaaaa",
"aaaaaaaaaaaaaaaaaaaaaaaaaaaaaaaai+i,hCi-i.i/i:aaaaaaaai#a2i;i<i=i>adaaaaaaaaaaaaaaaaaaaaaaaaaaaaaaaa",
"aaaaaaaaaaaaaaaaaaaaaaaaaaaaaaaai?i@i[i]i^i_aZaaaaaaaaadi`i{i|i}i`i~aaaaaaaaaaaaaaaaaaaaaaaaaaaaaaaa",
"aaaaaaaaaaaaaaaaaaaaaaaaaaaaaaaajajbjcjdjeijaaaaaaaaaaaajfjggLjhjijjaaaaaaaaaaaaaaaaaaaaaaaaaaaaaaaa",
"aaaaaaaaaaaaaaaaaaaaaaaaaaaaaaaaaaaaaaaaaaaaaaaaaaaaaaaaaaaaaaaaaaaaaaaaaaaaaaaaaaaaaaaaaaaaaaaaaaaa",
"aaaaaaaaaaaaaaaaaaaaaaaaaaaaaaaaaaaaaaaaaaaaaaaaaaaaaaaaaaaaaaaaaaaaaaaaaaaaaaaaaaaaaaaaaaaaaaaaaaaa",
"aaaaaaaaaaaaaaaaaaaaaaaaaaaaaaaaaaaaaaaaaaaaaaaaaaaaaaaaaaaaaaaaaaaaaaaaaaaaaaaaaaaaaaaaaaaaaaaaaaaa",
"aaaaaaaaaaaaaaaaaaaaaaaaaaaaaaaaaaaaaaaaaaaaaaaaaaaaaaaaaaaaaaaaaaaaaaaaaaaaaaaaaaaaaaaaaaaaaaaaaaaa",
"aaaaaaaaaaaaaaaaaaaaaaaaaaaaaaaaaaaaaaaaaaaaaaaaaaaaaaaaaaaaaaaaaaaaaaaaaaaaaaaaaaaaaaaaaaaaaaaaaaaa"
};