/* XPM */
static char *c8d4cc76d1444170a8128ff065c2a4f4GqBf4EjviU4YBIWh[] = {
/* columns rows colors chars-per-pixel */
"50 50 166 2 ",
"   c #241F1F",
".  c #2A1F1F",
"X  c #331E1F",
"o  c #3A1C1F",
"O  c #24201E",
"+  c #2C211D",
"@  c #2D2A1D",
"#  c #34251B",
"$  c #3C2519",
"%  c #3E2C19",
"&  c #34311C",
"*  c #383619",
"=  c #393B19",
"-  c #261F20",
";  c #2E2C2A",
":  c #312F2B",
">  c #421C1E",
",  c #4A1B1F",
"<  c #531A1F",
"1  c #6E171F",
"2  c #6D181F",
"3  c #7B171F",
"4  c #4B241A",
"5  c #442519",
"6  c #5D2B14",
"7  c #563C17",
"8  c #483B17",
"9  c #70390F",
"0  c #7E3B0F",
"q  c #692916",
"w  c #6C2316",
"e  c #733510",
"r  c #753811",
"t  c #7A3513",
"y  c #513021",
"u  c #413231",
"i  c #484716",
"p  c #494C18",
"a  c #594118",
"s  c #584D16",
"d  c #4E5218",
"f  c #4C5017",
"g  c #51521D",
"h  c #535014",
"j  c #605D11",
"k  c #714816",
"l  c #67700F",
"z  c #68720F",
"x  c #6E780E",
"c  c #747F0D",
"v  c #66671E",
"b  c #6B7411",
"n  c #6E7810",
"m  c #717913",
"M  c #44403D",
"N  c #636321",
"B  c #717220",
"V  c #4D4945",
"C  c #7A736A",
"Z  c #83161F",
"A  c #8B151F",
"S  c #93141F",
"D  c #9C131F",
"F  c #A4121F",
"G  c #AE111F",
"H  c #B2111F",
"J  c #BC111F",
"K  c #863C0C",
"L  c #87350D",
"P  c #9E3907",
"I  c #933709",
"U  c #953B09",
"Y  c #9A3B08",
"T  c #AB3D05",
"R  c #A03C07",
"E  c #BE3D00",
"W  c #B43E03",
"Q  c #9E1320",
"!  c #C70F1F",
"~  c #C80F1F",
"^  c #C5101F",
"/  c #C8101F",
"(  c #C23E00",
")  c #8A430C",
"_  c #98440B",
"`  c #815119",
"'  c #925610",
"]  c #A24209",
"[  c #A84408",
"{  c #B44405",
"}  c #BB4504",
"|  c #B64B05",
" . c #AC5009",
".. c #B55507",
"X. c #9F6806",
"o. c #80641E",
"O. c #B2620B",
"+. c #C64100",
"@. c #CB4500",
"#. c #C54B03",
"$. c #CF4800",
"%. c #D04700",
"&. c #D44B00",
"*. c #D84E00",
"=. c #CD5203",
"-. c #CD5C05",
";. c #D25201",
":. c #DC5300",
">. c #E05700",
",. c #E35B00",
"<. c #CF6004",
"1. c #CC6D09",
"2. c #CC6B07",
"3. c #D56E07",
"4. c #CE7C0F",
"5. c #E66201",
"6. c #E86501",
"7. c #EA6B01",
"8. c #EE7403",
"9. c #EF7904",
"0. c #EF7F08",
"q. c #F07C04",
"w. c #857D73",
"e. c #7E8A0B",
"r. c #7B860B",
"t. c #7C8316",
"y. c #818D0B",
"u. c #86920D",
"i. c #8B960E",
"p. c #8E9810",
"a. c #8A9215",
"s. c #9BA316",
"d. c #A7AE1A",
"f. c #B2B71E",
"g. c #8C8F20",
"h. c #969822",
"j. c #9EA021",
"k. c #A3A621",
"l. c #ADB022",
"z. c #BABE22",
"x. c #DF870D",
"c. c #D99919",
"v. c #D69417",
"b. c #E3820A",
"n. c #F28205",
"m. c #F28306",
"M. c #F18408",
"N. c #F18609",
"B. c #F38D0A",
"V. c #F4960E",
"C. c #F4930D",
"Z. c #F5990F",
"A. c #F59D11",
"S. c #F5A314",
"D. c #F6A916",
"F. c #F6A917",
"G. c #F6AD18",
"H. c #F6B31B",
"J. c #F7B91F",
"K. c #F7BE22",
"L. c #F8BF22",
"P. c #BFC323",
"I. c #F7C022",
"U. c #F8C022",
"Y. c #97887D",
"T. c #A0968A",
/* pixels */
"$.$.$.+.+.( ( E ( ( ( ( +.@.@.+.+.( ( ( ( ( ( ( +.( +.@.$.$.@.+.( ( E E ( ( ( @.+.$.$.@.+.+.( ( ( ( ",
"+.+.+.@.+.( +.+.@.$.%.*.:.:.:.&.&.$.+.+.( ( E ( @.@.$.%.:.:.:.*.@.( ( ( +.+.*.:.:.,.:.*.%.%.@.( ( ( ",
"@.$.+.+.+.+.@.%.*.,.,.,.:.*.%.$.@.$.$.%.$.+.+.( +.@.&.&.*.%.$.+.( ( +.@.%.$.*.:.:.*.%.@.+.+.+.+.+.+.",
":.:.:.*.%.@.+.@.@.$.&.%.$.$.+.+.+.$.@.+.+.@.$.%.$.%.%.$.$.+.+.( ( +.%.:.,.:.*.%.%.$.+.+.+.$.$.*.:.:.",
"8.8.8.8.7.:.*.$.@.+.+.+.+.+.@.%.:.:.:.%.$.@.$.$.$.@.+.+.+.@.+.+.+.$.*.:.:.&.$.+.+.+.@.%.*.:.5.8.8.8.",
"5.5.6.8.q.8.6.,.&.$.@.@.+.$.&.:.,.5.6.,.:.*.%.@.@.+.@.%.&.*.:.*.%.@.$.%.%.$.@.+.@.$.&.:.,.8.8.7.6.6.",
"*.*.*.>.5.7.8.8.,.:.:.*.&.%.*.*.*.*.,.,.7.9.6.>.:.*.*.,.,.,.,.,.>.,.:.*.*.*.*.*.:.,.:.,.6.5.:.*.*.*.",
"+.+.$.%.*.:.,.,.,.,.,.:.$.@.@.+.+.$.%.*.,.7.8.8.8.6.,.:.:.*.%.%.&.:.:.,.,.5.7.8.8.8.6.:.*.*.%.@.@.@.",
"*.%.$.+.+.@.$.%.*.*.%.$.+.@.$.+.+.+.+.@.%.*.:.5.5.:.*.%.&.$.+.+.+.%.%.*.:.5.7.q.7.,.:.%.+.+.+.@.&.*.",
"7.6.,.*.%.+.+.+.@.+.@.+.$.&.*.*.&.&.%.@.+.+.+.$.%.@.+.$.$.+.%.&.%.@.+.+.$.*.:.:.:.%.@.+.@.%.:.,.5.6.",
"G.V.n.7.,.:.*.&.%.%.&.&.*.:.5.7.7.,.,.:.%.$.@.+.+.$.%.&.:.:.,.,.,.:.%.+.@.@.$.@.+.+.+.%.:.,.5.7.8.q.",
"M.Z.C.q.8.6.,.:.&.%.*.,.,.8.n.V.A.V.M.7.:.*.*.*.*.*.*.%.*.:.*.:.,.,.,.:.*.&.&.&.%.&.%.%.*.*.*.:.,.5.",
",.6.7.8.q.q.q.8.6.>.:.*.:.5.7.q.B.D.G.S.q.7.7.7.7.,.,.:.:.*.%.$.*.:.,.7.7.6.6.6.5.,.,.:.*.&.%.%.%.*.",
"%.*.:.>.,.7.7.8.8.5.,.%.%.*.,.,.7.9.V.D.S.B.q.7.7.,.,.:.*.$.+.+.$.&.:.5.8.n.n.n.8.,.:.%.@.@.+.+.+.+.",
"$.@.@.$.%.*.:.,.:.%.%.+.+.+.@.$.*.:.5.8.8.7.=.U U U I W @.+.%.$.+.+.$.*.:.,.,.,.:.%.@.+.@.$.%.&.*.*.",
",.,.*.$.+.+.+.+.$.+.+.+.%.&.%.$.+.$.:.:.*.+.K = = = = ) =.5.5.,.:.%.@.+.$.%.%.$.@.+.+.%.:.,.5.7.8.7.",
",.:.,.:.*.$.+.+.+.$.%.:.,.6.6.5.:.&.@.+.+.I 8 c e.u.y.f ' b.C.B.8.-.#.} +.+.+.@.$.&.*.,.8.n.q.7.6.,.",
"$.$.%.*.:.:.:.*.*.:.,.8.M.S.D.B.8.5.:.%.%.%.] & e.z.i.d.N o.J.D.x.# + O U *.&.*.*.,.7.7.5.,.,.*.%.%.",
"+.+.+.@.%.:.,.,.,.5.7.7.8.M.A.D.Z.n.7.5.>.,.7.2.@ e.f.P.N k 9.-.& l.y.r.i K :.:.:.:.:.*.%.$.+.+.+.@.",
":.*.&.@.+.$.&.*.:.:.:.:.:.,.7.9.n.n.n.q.5.6.8.9.1.* k.s.d r | 7 j.p.f.g ) =.:.:.%.$.+.@.+.@.$.%.*.*.",
"9.8.7.,.:.$.+.+.@.@.$.$.%.%.:.:.:.:.:.>.:.,.,.,.,.] s m x s k g.a.i g 0 } %.$.@.+.+.$.%.%.:.7.7.8.8.",
"G.G.A.n.8.,.:.$.$.$.%.&.%.%.%.*.*.%.$.@.$.%.} e e X.j c y.t.B v h 0 L { +.+.+.@.$.%.:.,.5.9.B.S.G.D.",
"D.G.H.G.C.8.6.:.:.:.:.,.:.:.:.:.:.:.*.$.@.T 9 d N s.u.y.z t.a.f h K ;.:.%.%.%.%.*.:.,.8.B.D.J.H.D.G.",
"8.8.q.M.M.n.n.C.V.V.B.n.8.9.9.q.7.6.,.:.*.Y 7 b h.h.m l 7 a b n a.g _ ;.,.,.6.6.7.8.C.G.H.G.Z.q.6.6.",
":.,.,.,.7.9.M.C.Z.Z.B.n.8.7.6.6.8.q.q.7.,.*.T $ O > > > S A > y j.j.@ Y *.:.5.q.B.S.D.Z.B.8.6.,.:.:.",
"$.$.$.%.*.,.5.6.8.9.8.5._       &.,.6.8.9.,.:.} + H J ^ / ^ J F   O O I $.$.%.:.,.6.8.7.,.:.:.*.%.$.",
"@.$.$.+.@.%.%.:.:.:.*.%.L < H H $ } :.:.,.:.{ 4 A X X A ^ Z X > Q . ..;.*.*.*.&.&.:.:.:.*.$.+.+.+.+.",
":.:.:.:.*.$.+.$.$.$.@.$.+.L < ! F 4 R %.%.$.P   X ; T.u A X V Y.> . c.B.8.8.7.6.,.:.$.@.+.@.%.*.:.:.",
"7.8.8.8.6.:.*.$.$.$.%.*.,.] o ! ~ S w 6 6 6 q 3   ; w.: 3 - M C     c.G.V.M.q.7.,.*.@.$.%.:.,.7.7.6.",
"5.7.8.9.n.8.6.,.:.:.5.8.M.4.` 3 ! ! A 1 2 2 Z J >   O o D >     o . <.9.8.6.,.:.%.+.$.:.6.8.q.8.6.,.",
"&.:.:.>.5.8.n.q.q.q.n.n.B.A.v.O ! ! ! ! ! ! ~ ~ J > > F ! Z o , S 5 #.>.:.:.%.$.@.*.,.6.7.5.,.:.:.%.",
"+.+.+.%.*.,.5.7.q.q.7.6.6.7.3.% G ^ ! ! ! ! ! ! ! ~ ~ ! ! ! ! F # W @.%.$.+.+.@.&.:.,.:.*.%.@.@.@.+.",
"$.$.@.+.+.$.&.*.:.:.:.:.:.:.,.7.+ F ^ ^ ^ ~ ~ / / / ^ ~ ~ ^ S 5 $.$.$.@.$.@.+.@.%.$.$.@.@.+.@.$.$.$.",
"7.,.:.*.@.@.+.+.$.@.@.@.@.$.&.:.#.4 S ! ^ ! ! ! ! ! ! ! ! Z 6 $.5.7.5.,.,.>.*.$.@.+.+.$.%.*.:.:.,.5.",
"D.B.M.6.,.:.&.$.+.+.$.&.%.@.+.@.&.} q > > > > > > > > > > t 2.B.C.C.B.n.8.7.6.,.:.*.*.*.:.5.8.q.B.A.",
"M.M.M.q.7.,.:.*.%.&.*.:.:.:.*.$.+.$.[ Y Y Y Y U U Y ]  .O.4.D.H.U.I.K.J.D.Z.n.8.6.5.,.7.q.n.n.9.9.0.",
",.,.,.,.,.,.:.*.:.,.6.7.8.8.7.,.*.$.$.$.+.+.+.$.*.:.,.7.8.8.9.n.B.A.G.J.L.K.G.D.A.B.n.8.7.,.,.,.,.>.",
"*.*.%.&.&.*.%.&.*.:.,.,.6.8.q.q.6.,.*.*.%.*.*.:.:.,.>.:.:.:.:.,.6.9.M.V.D.H.H.S.B.9.5.:.*.%.%.$.$.%.",
"+.+.+.@.@.+.( +.+.@.$.%.:.:.,.7.9.q.7.5.,.,.,.:.*.%.$.@.@.+.@.%.*.,.6.7.q.M.q.7.,.>.*.$.@.+.+.+.+.+.",
"%.$.&.%.@.+.@.%.%.%.@.+.+.@.&.*.:.,.5.,.>.*.%.+.+.+.@.%.%.$.$.+.+.$.&.:.:.,.,.:.*.%.@.+.+.@.$.%.&.%.",
"6.5.,.,.>.:.:.:.>.,.:.*.%.@.+.%.&.*.*.&.%.+.+.+.%.*.:.:.:.>.:.*.%.@.+.@.%.*.*.%.@.+.+.$.:.,.,.6.6.6.",
"q.q.n.q.7.5.8.9.M.M.n.8.,.:.$.+.+.+.+.+.+.@.%.*.:.,.7.8.n.n.9.5.,.:.*.$.@.+.+.+.+.@.%.:.,.7.q.q.8.8.",
",.,.7.q.q.M.A.A.D.H.H.D.C.8.,.*.$.%.&.%.*.:.,.5.8.9.B.S.G.G.G.S.M.8.7.,.:.*.%.%.&.%.*.,.,.,.,.,.,.,.",
"&.%.:.,.,.7.7.7.8.n.V.G.H.S.M.5.,.:.:.:.*.:.5.9.q.n.B.M.9.7.7.7.q.q.n.q.8.8.5.,.,.:.%.%.$.%.%.%.%.%.",
"+.$.%.&.*.:.:.:.,.,.7.9.C.H.H.C.q.7.,.,.,.*.:.,.5.7.7.,.:.&.:.:.,.5.7.7.8.7.5.,.:.*.@.+.+.+.$.@.+.+.",
"$.+.+.+.+.+.@.@.$.&.:.,.6.9.C.S.Z.M.8.8.,.:.*.$.$.%.$.@.+.+.+.+.%.*.:.:.:.*.&.%.+.+.+.$.*.:.:.&.%.$.",
"*.*.%.$.@.$.@.+.+.+.$.*.*.:.,.6.6.5.:.:.:.*.%.+.+.@.$.$.%.%.%.$.@.@.$.@.@.+.+.@.@.%.*.,.7.5.,.:.:.:.",
":.,.,.,.>.:.:.:.*.$.+.+.$.%.&.*.:.*.%.$.+.+.+.$.%.:.,.,.,.:.,.:.*.$.$.$.+.+.$.&.*.,.6.7.7.:.*.%.*.,.",
"$.%.%.*.:.:.*.&.%.$.$.+.+.+.@.@.@.+.+.+.+.@.$.*.,.,.,.:.&.$.$.&.*.&.%.%.$.%.*.,.,.,.,.>.*.$.+.+.@.@.",
"( ( ( +.@.$.+.+.( ( +.+.+.( ( ( ( +.( ( +.+.+.@.%.$.@.$.+.( ( ( +.+.( +.+.+.+.$.&.%.&.$.+.( ( ( ( ( "
};
